<?xml version="1.0" encoding="UTF-8" standalone="no"?>
<!DOCTYPE svg PUBLIC "-//W3C//DTD SVG 1.1//EN" "http://www.w3.org/Graphics/SVG/1.1/DTD/svg11.dtd">
<svg xmlns="http://www.w3.org/2000/svg" xmlns:xlink="http://www.w3.org/1999/xlink" version="1.1" width="414.94438pt" height="312.6275pt" viewBox="0 0 414.94438 312.6275">
<g enable-background="new">
<g>
<path transform="matrix(1,0,0,-1,0,312.6275)" d="M 0 0 L 414.94438 0 L 414.94438 312.6275 L 0 312.6275 Z " fill="#ffffff"/>
<path transform="matrix(1,0,0,-1,0,312.6275)" d="M 45.934377 42.8875 L 407.7444 42.8875 L 407.7444 305.4275 L 45.934377 305.4275 Z " fill="#ffffff"/>
<clipPath id="cp0">
<path transform="matrix(1,0,0,-1,0,312.6275)" d="M 45.934377 42.8875 L 407.7444 42.8875 L 407.7444 305.42753 L 45.934377 305.42753 Z "/>
</clipPath>
<g clip-path="url(#cp0)">
<path transform="matrix(1,0,0,-1,0,312.6275)" stroke-width=".5" stroke-linecap="square" stroke-linejoin="round" fill="none" stroke="#000000" stroke-opacity=".1" d="M 45.934377 42.8875 L 45.934377 305.4275 "/>
</g>
<path transform="matrix(1,0,0,-1,0,312.6275)" d="M 45.934377 42.8875 L 45.934377 38.8875 "/>
<path transform="matrix(1,0,0,-1,0,312.6275)" stroke-width=".8" stroke-linecap="butt" stroke-linejoin="round" fill="none" stroke="#000000" d="M 45.934377 42.8875 L 45.934377 38.8875 "/>
<text xml:space="preserve" transform="matrix(1 0 -0 1 0 312.6275)" font-size="10" font-family="DejaVuSans"><tspan y="-27.79375" x="39.575 45.935">89</tspan></text>
<clipPath id="cp1">
<path transform="matrix(1,0,0,-1,0,312.6275)" d="M 45.934377 42.8875 L 407.7444 42.8875 L 407.7444 305.42753 L 45.934377 305.42753 Z "/>
</clipPath>
<g clip-path="url(#cp1)">
<path transform="matrix(1,0,0,-1,0,312.6275)" stroke-width=".5" stroke-linecap="square" stroke-linejoin="round" fill="none" stroke="#000000" stroke-opacity=".1" d="M 90.05755 42.8875 L 90.05755 305.4275 "/>
</g>
<path transform="matrix(1,0,0,-1,0,312.6275)" d="M 90.05755 42.8875 L 90.05755 38.8875 "/>
<path transform="matrix(1,0,0,-1,0,312.6275)" stroke-width=".8" stroke-linecap="butt" stroke-linejoin="round" fill="none" stroke="#000000" d="M 90.05755 42.8875 L 90.05755 38.8875 "/>
<text xml:space="preserve" transform="matrix(1 0 -0 1 0 312.6275)" font-size="10" font-family="DejaVuSans"><tspan y="-27.79375" x="83.69817 90.058177">90</tspan></text>
<clipPath id="cp2">
<path transform="matrix(1,0,0,-1,0,312.6275)" d="M 45.934377 42.8875 L 407.7444 42.8875 L 407.7444 305.42753 L 45.934377 305.42753 Z "/>
</clipPath>
<g clip-path="url(#cp2)">
<path transform="matrix(1,0,0,-1,0,312.6275)" stroke-width=".5" stroke-linecap="square" stroke-linejoin="round" fill="none" stroke="#000000" stroke-opacity=".1" d="M 134.18071 42.8875 L 134.18071 305.4275 "/>
</g>
<path transform="matrix(1,0,0,-1,0,312.6275)" d="M 134.18071 42.8875 L 134.18071 38.8875 "/>
<path transform="matrix(1,0,0,-1,0,312.6275)" stroke-width=".8" stroke-linecap="butt" stroke-linejoin="round" fill="none" stroke="#000000" d="M 134.18071 42.8875 L 134.18071 38.8875 "/>
<text xml:space="preserve" transform="matrix(1 0 -0 1 0 312.6275)" font-size="10" font-family="DejaVuSans"><tspan y="-27.79375" x="127.82134 134.18134">91</tspan></text>
<clipPath id="cp3">
<path transform="matrix(1,0,0,-1,0,312.6275)" d="M 45.934377 42.8875 L 407.7444 42.8875 L 407.7444 305.42753 L 45.934377 305.42753 Z "/>
</clipPath>
<g clip-path="url(#cp3)">
<path transform="matrix(1,0,0,-1,0,312.6275)" stroke-width=".5" stroke-linecap="square" stroke-linejoin="round" fill="none" stroke="#000000" stroke-opacity=".1" d="M 178.3039 42.8875 L 178.3039 305.4275 "/>
</g>
<path transform="matrix(1,0,0,-1,0,312.6275)" d="M 178.3039 42.8875 L 178.3039 38.8875 "/>
<path transform="matrix(1,0,0,-1,0,312.6275)" stroke-width=".8" stroke-linecap="butt" stroke-linejoin="round" fill="none" stroke="#000000" d="M 178.3039 42.8875 L 178.3039 38.8875 "/>
<text xml:space="preserve" transform="matrix(1 0 -0 1 0 312.6275)" font-size="10" font-family="DejaVuSans"><tspan y="-27.79375" x="171.94452 178.30452">92</tspan></text>
<clipPath id="cp4">
<path transform="matrix(1,0,0,-1,0,312.6275)" d="M 45.934377 42.8875 L 407.7444 42.8875 L 407.7444 305.42753 L 45.934377 305.42753 Z "/>
</clipPath>
<g clip-path="url(#cp4)">
<path transform="matrix(1,0,0,-1,0,312.6275)" stroke-width=".5" stroke-linecap="square" stroke-linejoin="round" fill="none" stroke="#000000" stroke-opacity=".1" d="M 222.42707 42.8875 L 222.42707 305.4275 "/>
</g>
<path transform="matrix(1,0,0,-1,0,312.6275)" d="M 222.42707 42.8875 L 222.42707 38.8875 "/>
<path transform="matrix(1,0,0,-1,0,312.6275)" stroke-width=".8" stroke-linecap="butt" stroke-linejoin="round" fill="none" stroke="#000000" d="M 222.42707 42.8875 L 222.42707 38.8875 "/>
<text xml:space="preserve" transform="matrix(1 0 -0 1 0 312.6275)" font-size="10" font-family="DejaVuSans"><tspan y="-27.79375" x="216.06769 222.42769">93</tspan></text>
<clipPath id="cp5">
<path transform="matrix(1,0,0,-1,0,312.6275)" d="M 45.934377 42.8875 L 407.7444 42.8875 L 407.7444 305.42753 L 45.934377 305.42753 Z "/>
</clipPath>
<g clip-path="url(#cp5)">
<path transform="matrix(1,0,0,-1,0,312.6275)" stroke-width=".5" stroke-linecap="square" stroke-linejoin="round" fill="none" stroke="#000000" stroke-opacity=".1" d="M 266.55024 42.8875 L 266.55024 305.4275 "/>
</g>
<path transform="matrix(1,0,0,-1,0,312.6275)" d="M 266.55024 42.8875 L 266.55024 38.8875 "/>
<path transform="matrix(1,0,0,-1,0,312.6275)" stroke-width=".8" stroke-linecap="butt" stroke-linejoin="round" fill="none" stroke="#000000" d="M 266.55024 42.8875 L 266.55024 38.8875 "/>
<text xml:space="preserve" transform="matrix(1 0 -0 1 0 312.6275)" font-size="10" font-family="DejaVuSans"><tspan y="-27.79375" x="260.19087 266.55085">94</tspan></text>
<clipPath id="cp6">
<path transform="matrix(1,0,0,-1,0,312.6275)" d="M 45.934377 42.8875 L 407.7444 42.8875 L 407.7444 305.42753 L 45.934377 305.42753 Z "/>
</clipPath>
<g clip-path="url(#cp6)">
<path transform="matrix(1,0,0,-1,0,312.6275)" stroke-width=".5" stroke-linecap="square" stroke-linejoin="round" fill="none" stroke="#000000" stroke-opacity=".1" d="M 310.6734 42.8875 L 310.6734 305.4275 "/>
</g>
<path transform="matrix(1,0,0,-1,0,312.6275)" d="M 310.6734 42.8875 L 310.6734 38.8875 "/>
<path transform="matrix(1,0,0,-1,0,312.6275)" stroke-width=".8" stroke-linecap="butt" stroke-linejoin="round" fill="none" stroke="#000000" d="M 310.6734 42.8875 L 310.6734 38.8875 "/>
<text xml:space="preserve" transform="matrix(1 0 -0 1 0 312.6275)" font-size="10" font-family="DejaVuSans"><tspan y="-27.79375" x="304.31404 310.674">95</tspan></text>
<clipPath id="cp7">
<path transform="matrix(1,0,0,-1,0,312.6275)" d="M 45.934377 42.8875 L 407.7444 42.8875 L 407.7444 305.42753 L 45.934377 305.42753 Z "/>
</clipPath>
<g clip-path="url(#cp7)">
<path transform="matrix(1,0,0,-1,0,312.6275)" stroke-width=".5" stroke-linecap="square" stroke-linejoin="round" fill="none" stroke="#000000" stroke-opacity=".1" d="M 354.79658 42.8875 L 354.79658 305.4275 "/>
</g>
<path transform="matrix(1,0,0,-1,0,312.6275)" d="M 354.79658 42.8875 L 354.79658 38.8875 "/>
<path transform="matrix(1,0,0,-1,0,312.6275)" stroke-width=".8" stroke-linecap="butt" stroke-linejoin="round" fill="none" stroke="#000000" d="M 354.79658 42.8875 L 354.79658 38.8875 "/>
<text xml:space="preserve" transform="matrix(1 0 -0 1 0 312.6275)" font-size="10" font-family="DejaVuSans"><tspan y="-27.79375" x="348.4372 354.79719">96</tspan></text>
<clipPath id="cp8">
<path transform="matrix(1,0,0,-1,0,312.6275)" d="M 45.934377 42.8875 L 407.7444 42.8875 L 407.7444 305.42753 L 45.934377 305.42753 Z "/>
</clipPath>
<g clip-path="url(#cp8)">
<path transform="matrix(1,0,0,-1,0,312.6275)" stroke-width=".5" stroke-linecap="square" stroke-linejoin="round" fill="none" stroke="#000000" stroke-opacity=".1" d="M 398.91975 42.8875 L 398.91975 305.4275 "/>
</g>
<path transform="matrix(1,0,0,-1,0,312.6275)" d="M 398.91975 42.8875 L 398.91975 38.8875 "/>
<path transform="matrix(1,0,0,-1,0,312.6275)" stroke-width=".8" stroke-linecap="butt" stroke-linejoin="round" fill="none" stroke="#000000" d="M 398.91975 42.8875 L 398.91975 38.8875 "/>
<text xml:space="preserve" transform="matrix(1 0 -0 1 0 312.6275)" font-size="10" font-family="DejaVuSans"><tspan y="-27.79375" x="392.56037 398.92036">97</tspan></text>
<text xml:space="preserve" transform="matrix(1 0 -0 1 0 312.6275)" font-size="15" font-family="DejaVuSans"><tspan y="-10.325" x="123.44093 132.96593 137.13593 145.01093 154.23593 159.00594 169.47594 178.65595 193.26595 202.79094 208.95594 218.18094 225.99594 233.81095 237.98094 247.16095 256.67097 261.44096 271.86595 281.06095 286.94096 291.11097 300.29096 305.06095 310.91096 325.16096">Size Compression Ratio (%)</tspan></text>
<clipPath id="cp9">
<path transform="matrix(1,0,0,-1,0,312.6275)" d="M 45.934377 42.8875 L 407.7444 42.8875 L 407.7444 305.42753 L 45.934377 305.42753 Z "/>
</clipPath>
<g clip-path="url(#cp9)">
<path transform="matrix(1,0,0,-1,0,312.6275)" stroke-width=".5" stroke-linecap="square" stroke-linejoin="round" fill="none" stroke="#000000" stroke-opacity=".1" d="M 45.934377 42.8875 L 407.7444 42.8875 "/>
</g>
<path transform="matrix(1,0,0,-1,0,312.6275)" d="M 45.934377 42.8875 L 41.934377 42.8875 "/>
<path transform="matrix(1,0,0,-1,0,312.6275)" stroke-width=".8" stroke-linecap="butt" stroke-linejoin="round" fill="none" stroke="#000000" d="M 45.934377 42.8875 L 41.934377 42.8875 "/>
<text xml:space="preserve" transform="matrix(1 0 -0 1 0 312.6275)" font-size="10" font-family="DejaVuSans"><tspan y="-39.090627" x="25.715626 32.075628">38</tspan></text>
<clipPath id="cp10">
<path transform="matrix(1,0,0,-1,0,312.6275)" d="M 45.934377 42.8875 L 407.7444 42.8875 L 407.7444 305.42753 L 45.934377 305.42753 Z "/>
</clipPath>
<g clip-path="url(#cp10)">
<path transform="matrix(1,0,0,-1,0,312.6275)" stroke-width=".5" stroke-linecap="square" stroke-linejoin="round" fill="none" stroke="#000000" stroke-opacity=".1" d="M 45.934377 75.705 L 407.7444 75.705 "/>
</g>
<path transform="matrix(1,0,0,-1,0,312.6275)" d="M 45.934377 75.705 L 41.934377 75.705 "/>
<path transform="matrix(1,0,0,-1,0,312.6275)" stroke-width=".8" stroke-linecap="butt" stroke-linejoin="round" fill="none" stroke="#000000" d="M 45.934377 75.705 L 41.934377 75.705 "/>
<text xml:space="preserve" transform="matrix(1 0 -0 1 0 312.6275)" font-size="10" font-family="DejaVuSans"><tspan y="-71.90813" x="25.715626 32.075628">40</tspan></text>
<clipPath id="cp11">
<path transform="matrix(1,0,0,-1,0,312.6275)" d="M 45.934377 42.8875 L 407.7444 42.8875 L 407.7444 305.42753 L 45.934377 305.42753 Z "/>
</clipPath>
<g clip-path="url(#cp11)">
<path transform="matrix(1,0,0,-1,0,312.6275)" stroke-width=".5" stroke-linecap="square" stroke-linejoin="round" fill="none" stroke="#000000" stroke-opacity=".1" d="M 45.934377 108.5225 L 407.7444 108.5225 "/>
</g>
<path transform="matrix(1,0,0,-1,0,312.6275)" d="M 45.934377 108.5225 L 41.934377 108.5225 "/>
<path transform="matrix(1,0,0,-1,0,312.6275)" stroke-width=".8" stroke-linecap="butt" stroke-linejoin="round" fill="none" stroke="#000000" d="M 45.934377 108.5225 L 41.934377 108.5225 "/>
<text xml:space="preserve" transform="matrix(1 0 -0 1 0 312.6275)" font-size="10" font-family="DejaVuSans"><tspan y="-104.725627" x="25.715626 32.075628">42</tspan></text>
<clipPath id="cp12">
<path transform="matrix(1,0,0,-1,0,312.6275)" d="M 45.934377 42.8875 L 407.7444 42.8875 L 407.7444 305.42753 L 45.934377 305.42753 Z "/>
</clipPath>
<g clip-path="url(#cp12)">
<path transform="matrix(1,0,0,-1,0,312.6275)" stroke-width=".5" stroke-linecap="square" stroke-linejoin="round" fill="none" stroke="#000000" stroke-opacity=".1" d="M 45.934377 141.34 L 407.7444 141.34 "/>
</g>
<path transform="matrix(1,0,0,-1,0,312.6275)" d="M 45.934377 141.34 L 41.934377 141.34 "/>
<path transform="matrix(1,0,0,-1,0,312.6275)" stroke-width=".8" stroke-linecap="butt" stroke-linejoin="round" fill="none" stroke="#000000" d="M 45.934377 141.34 L 41.934377 141.34 "/>
<text xml:space="preserve" transform="matrix(1 0 -0 1 0 312.6275)" font-size="10" font-family="DejaVuSans"><tspan y="-137.54312" x="25.715626 32.075628">44</tspan></text>
<clipPath id="cp13">
<path transform="matrix(1,0,0,-1,0,312.6275)" d="M 45.934377 42.8875 L 407.7444 42.8875 L 407.7444 305.42753 L 45.934377 305.42753 Z "/>
</clipPath>
<g clip-path="url(#cp13)">
<path transform="matrix(1,0,0,-1,0,312.6275)" stroke-width=".5" stroke-linecap="square" stroke-linejoin="round" fill="none" stroke="#000000" stroke-opacity=".1" d="M 45.934377 174.1575 L 407.7444 174.1575 "/>
</g>
<path transform="matrix(1,0,0,-1,0,312.6275)" d="M 45.934377 174.1575 L 41.934377 174.1575 "/>
<path transform="matrix(1,0,0,-1,0,312.6275)" stroke-width=".8" stroke-linecap="butt" stroke-linejoin="round" fill="none" stroke="#000000" d="M 45.934377 174.1575 L 41.934377 174.1575 "/>
<text xml:space="preserve" transform="matrix(1 0 -0 1 0 312.6275)" font-size="10" font-family="DejaVuSans"><tspan y="-170.36063" x="25.715626 32.075628">46</tspan></text>
<clipPath id="cp14">
<path transform="matrix(1,0,0,-1,0,312.6275)" d="M 45.934377 42.8875 L 407.7444 42.8875 L 407.7444 305.42753 L 45.934377 305.42753 Z "/>
</clipPath>
<g clip-path="url(#cp14)">
<path transform="matrix(1,0,0,-1,0,312.6275)" stroke-width=".5" stroke-linecap="square" stroke-linejoin="round" fill="none" stroke="#000000" stroke-opacity=".1" d="M 45.934377 206.975 L 407.7444 206.975 "/>
</g>
<path transform="matrix(1,0,0,-1,0,312.6275)" d="M 45.934377 206.975 L 41.934377 206.975 "/>
<path transform="matrix(1,0,0,-1,0,312.6275)" stroke-width=".8" stroke-linecap="butt" stroke-linejoin="round" fill="none" stroke="#000000" d="M 45.934377 206.975 L 41.934377 206.975 "/>
<text xml:space="preserve" transform="matrix(1 0 -0 1 0 312.6275)" font-size="10" font-family="DejaVuSans"><tspan y="-203.17813" x="25.715626 32.075628">48</tspan></text>
<clipPath id="cp15">
<path transform="matrix(1,0,0,-1,0,312.6275)" d="M 45.934377 42.8875 L 407.7444 42.8875 L 407.7444 305.42753 L 45.934377 305.42753 Z "/>
</clipPath>
<g clip-path="url(#cp15)">
<path transform="matrix(1,0,0,-1,0,312.6275)" stroke-width=".5" stroke-linecap="square" stroke-linejoin="round" fill="none" stroke="#000000" stroke-opacity=".1" d="M 45.934377 239.7925 L 407.7444 239.7925 "/>
</g>
<path transform="matrix(1,0,0,-1,0,312.6275)" d="M 45.934377 239.7925 L 41.934377 239.7925 "/>
<path transform="matrix(1,0,0,-1,0,312.6275)" stroke-width=".8" stroke-linecap="butt" stroke-linejoin="round" fill="none" stroke="#000000" d="M 45.934377 239.7925 L 41.934377 239.7925 "/>
<text xml:space="preserve" transform="matrix(1 0 -0 1 0 312.6275)" font-size="10" font-family="DejaVuSans"><tspan y="-235.99562" x="25.715626 32.075628">50</tspan></text>
<clipPath id="cp16">
<path transform="matrix(1,0,0,-1,0,312.6275)" d="M 45.934377 42.8875 L 407.7444 42.8875 L 407.7444 305.42753 L 45.934377 305.42753 Z "/>
</clipPath>
<g clip-path="url(#cp16)">
<path transform="matrix(1,0,0,-1,0,312.6275)" stroke-width=".5" stroke-linecap="square" stroke-linejoin="round" fill="none" stroke="#000000" stroke-opacity=".1" d="M 45.934377 272.61 L 407.7444 272.61 "/>
</g>
<path transform="matrix(1,0,0,-1,0,312.6275)" d="M 45.934377 272.61 L 41.934377 272.61 "/>
<path transform="matrix(1,0,0,-1,0,312.6275)" stroke-width=".8" stroke-linecap="butt" stroke-linejoin="round" fill="none" stroke="#000000" d="M 45.934377 272.61 L 41.934377 272.61 "/>
<text xml:space="preserve" transform="matrix(1 0 -0 1 0 312.6275)" font-size="10" font-family="DejaVuSans"><tspan y="-268.8131" x="25.715626 32.075628">52</tspan></text>
<text xml:space="preserve" transform="matrix(0 -1 1 0 0 312.6275)" font-size="15" font-family="DejaVuSans"><tspan y="18.590626" x="145.5325 155.7925 164.0425 172.2925 177.0625 182.9125 197.1625">Acc (%)</tspan></text>
<clipPath id="cp17">
<path transform="matrix(1,0,0,-1,0,312.6275)" d="M 45.934377 42.8875 L 407.7444 42.8875 L 407.7444 305.42753 L 45.934377 305.42753 Z "/>
</clipPath>
<g clip-path="url(#cp17)">
<path transform="matrix(1,0,0,-1,0,312.6275)" stroke-width="2" stroke-linecap="butt" stroke-dasharray="7.4,3.2" stroke-linejoin="round" fill="none" stroke="#f08080" d="M -1 291.1519 L 415.94438 291.1519 "/>
</g>
<clipPath id="cp18">
<path transform="matrix(1,0,0,-1,0,312.6275)" d="M 45.934377 42.8875 L 407.7444 42.8875 L 407.7444 305.42753 L 45.934377 305.42753 Z "/>
</clipPath>
<g clip-path="url(#cp18)">
<path transform="matrix(1,0,0,-1,0,312.6275)" stroke-width="2" stroke-linecap="butt" stroke-dasharray="7.4,3.2" stroke-linejoin="round" fill="none" stroke="#f08080" d="M 90.05755 153.81066 L 178.3039 125.09534 L 266.55024 101.466739 L 354.79658 73.90004 "/>
<clipPath id="cp19">
<path transform="matrix(1,0,0,-1,90.05755,158.81685)" d="M -8.5 -8.5 L 8.5 -8.5 L 8.5 8.5 L -8.5 8.5 Z "/>
</clipPath>
<g clip-path="url(#cp19)">
<path transform="matrix(1,0,0,-1,90.05755,158.81685)" d="M -1.75 -3.5 L 0 -1.75 L 1.75 -3.5 L 3.5 -1.75 L 1.75 0 L 3.5 1.75 L 1.75 3.5 L 0 1.75 L -1.75 3.5 L -3.5 1.75 L -1.75 0 L -3.5 -1.75 Z " fill="#f08080"/>
<path transform="matrix(1,0,0,-1,90.05755,158.81685)" stroke-width="1" stroke-linecap="butt" stroke-miterlimit="10" stroke-linejoin="miter" fill="none" stroke="#f08080" d="M -1.75 -3.5 L 0 -1.75 L 1.75 -3.5 L 3.5 -1.75 L 1.75 0 L 3.5 1.75 L 1.75 3.5 L 0 1.75 L -1.75 3.5 L -3.5 1.75 L -1.75 0 L -3.5 -1.75 Z "/>
</g>
<clipPath id="cp20">
<path transform="matrix(1,0,0,-1,178.3039,187.53217)" d="M -8.5 -8.5 L 8.5 -8.5 L 8.5 8.5 L -8.5 8.5 Z "/>
</clipPath>
<g clip-path="url(#cp20)">
<path transform="matrix(1,0,0,-1,178.3039,187.53217)" d="M -1.75 -3.5 L 0 -1.75 L 1.75 -3.5 L 3.5 -1.75 L 1.75 0 L 3.5 1.75 L 1.75 3.5 L 0 1.75 L -1.75 3.5 L -3.5 1.75 L -1.75 0 L -3.5 -1.75 Z " fill="#f08080"/>
<path transform="matrix(1,0,0,-1,178.3039,187.53217)" stroke-width="1" stroke-linecap="butt" stroke-miterlimit="10" stroke-linejoin="miter" fill="none" stroke="#f08080" d="M -1.75 -3.5 L 0 -1.75 L 1.75 -3.5 L 3.5 -1.75 L 1.75 0 L 3.5 1.75 L 1.75 3.5 L 0 1.75 L -1.75 3.5 L -3.5 1.75 L -1.75 0 L -3.5 -1.75 Z "/>
</g>
<clipPath id="cp21">
<path transform="matrix(1,0,0,-1,266.55024,211.16077)" d="M -8.5 -8.5 L 8.5 -8.5 L 8.5 8.5 L -8.5 8.5 Z "/>
</clipPath>
<g clip-path="url(#cp21)">
<path transform="matrix(1,0,0,-1,266.55024,211.16077)" d="M -1.75 -3.5 L 0 -1.75 L 1.75 -3.5 L 3.5 -1.75 L 1.75 0 L 3.5 1.75 L 1.75 3.5 L 0 1.75 L -1.75 3.5 L -3.5 1.75 L -1.75 0 L -3.5 -1.75 Z " fill="#f08080"/>
<path transform="matrix(1,0,0,-1,266.55024,211.16077)" stroke-width="1" stroke-linecap="butt" stroke-miterlimit="10" stroke-linejoin="miter" fill="none" stroke="#f08080" d="M -1.75 -3.5 L 0 -1.75 L 1.75 -3.5 L 3.5 -1.75 L 1.75 0 L 3.5 1.75 L 1.75 3.5 L 0 1.75 L -1.75 3.5 L -3.5 1.75 L -1.75 0 L -3.5 -1.75 Z "/>
</g>
<clipPath id="cp22">
<path transform="matrix(1,0,0,-1,354.79658,238.72747)" d="M -8.5 -8.5 L 8.5 -8.5 L 8.5 8.5 L -8.5 8.5 Z "/>
</clipPath>
<g clip-path="url(#cp22)">
<path transform="matrix(1,0,0,-1,354.79658,238.72747)" d="M -1.75 -3.5 L 0 -1.75 L 1.75 -3.5 L 3.5 -1.75 L 1.75 0 L 3.5 1.75 L 1.75 3.5 L 0 1.75 L -1.75 3.5 L -3.5 1.75 L -1.75 0 L -3.5 -1.75 Z " fill="#f08080"/>
<path transform="matrix(1,0,0,-1,354.79658,238.72747)" stroke-width="1" stroke-linecap="butt" stroke-miterlimit="10" stroke-linejoin="miter" fill="none" stroke="#f08080" d="M -1.75 -3.5 L 0 -1.75 L 1.75 -3.5 L 3.5 -1.75 L 1.75 0 L 3.5 1.75 L 1.75 3.5 L 0 1.75 L -1.75 3.5 L -3.5 1.75 L -1.75 0 L -3.5 -1.75 Z "/>
</g>
</g>
<clipPath id="cp23">
<path transform="matrix(1,0,0,-1,0,312.6275)" d="M 45.934377 42.8875 L 407.7444 42.8875 L 407.7444 305.42753 L 45.934377 305.42753 Z "/>
</clipPath>
<g clip-path="url(#cp23)">
<path transform="matrix(1,0,0,-1,0,312.6275)" stroke-width="2" stroke-linecap="butt" stroke-dasharray="7.4,3.2" stroke-linejoin="round" fill="none" stroke="#f08080" d="M 90.05755 152.66204 L 178.3039 139.20687 L 266.55024 114.265567 L 354.79658 85.71434 "/>
<clipPath id="cp24">
<path transform="matrix(1,0,0,-1,90.05755,159.96547)" d="M -9.949747 -9.949747 L 9.949747 -9.949747 L 9.949747 9.949747 L -9.949747 9.949747 Z "/>
</clipPath>
<g clip-path="url(#cp24)">
<path transform="matrix(1,0,0,-1,90.05755,159.96547)" d="M 0 -4.949747 L 4.949747 0 L 0 4.949747 L -4.949747 0 Z " fill="#f08080"/>
<path transform="matrix(1,0,0,-1,90.05755,159.96547)" stroke-width="1" stroke-linecap="butt" stroke-miterlimit="10" stroke-linejoin="miter" fill="none" stroke="#f08080" d="M 0 -4.949747 L 4.949747 0 L 0 4.949747 L -4.949747 0 Z "/>
</g>
<clipPath id="cp25">
<path transform="matrix(1,0,0,-1,178.3039,173.42064)" d="M -9.949747 -9.949747 L 9.949747 -9.949747 L 9.949747 9.949747 L -9.949747 9.949747 Z "/>
</clipPath>
<g clip-path="url(#cp25)">
<path transform="matrix(1,0,0,-1,178.3039,173.42064)" d="M 0 -4.949747 L 4.949747 0 L 0 4.949747 L -4.949747 0 Z " fill="#f08080"/>
<path transform="matrix(1,0,0,-1,178.3039,173.42064)" stroke-width="1" stroke-linecap="butt" stroke-miterlimit="10" stroke-linejoin="miter" fill="none" stroke="#f08080" d="M 0 -4.949747 L 4.949747 0 L 0 4.949747 L -4.949747 0 Z "/>
</g>
<clipPath id="cp26">
<path transform="matrix(1,0,0,-1,266.55024,198.36194)" d="M -9.949747 -9.949747 L 9.949747 -9.949747 L 9.949747 9.949747 L -9.949747 9.949747 Z "/>
</clipPath>
<g clip-path="url(#cp26)">
<path transform="matrix(1,0,0,-1,266.55024,198.36194)" d="M 0 -4.949747 L 4.949747 0 L 0 4.949747 L -4.949747 0 Z " fill="#f08080"/>
<path transform="matrix(1,0,0,-1,266.55024,198.36194)" stroke-width="1" stroke-linecap="butt" stroke-miterlimit="10" stroke-linejoin="miter" fill="none" stroke="#f08080" d="M 0 -4.949747 L 4.949747 0 L 0 4.949747 L -4.949747 0 Z "/>
</g>
<clipPath id="cp27">
<path transform="matrix(1,0,0,-1,354.79658,226.91316)" d="M -9.949747 -9.949747 L 9.949747 -9.949747 L 9.949747 9.949747 L -9.949747 9.949747 Z "/>
</clipPath>
<g clip-path="url(#cp27)">
<path transform="matrix(1,0,0,-1,354.79658,226.91316)" d="M 0 -4.949747 L 4.949747 0 L 0 4.949747 L -4.949747 0 Z " fill="#f08080"/>
<path transform="matrix(1,0,0,-1,354.79658,226.91316)" stroke-width="1" stroke-linecap="butt" stroke-miterlimit="10" stroke-linejoin="miter" fill="none" stroke="#f08080" d="M 0 -4.949747 L 4.949747 0 L 0 4.949747 L -4.949747 0 Z "/>
</g>
</g>
<clipPath id="cp28">
<path transform="matrix(1,0,0,-1,0,312.6275)" d="M 45.934377 42.8875 L 407.7444 42.8875 L 407.7444 305.42753 L 45.934377 305.42753 Z "/>
</clipPath>
<g clip-path="url(#cp28)">
<path transform="matrix(1,0,0,-1,0,312.6275)" stroke-width="2" stroke-linecap="butt" stroke-dasharray="7.4,3.2" stroke-linejoin="round" fill="none" stroke="#f08080" d="M 326.99897 160.21007 L 387.0065 146.5908 L 392.7425 150.85707 "/>
<clipPath id="cp29">
<path transform="matrix(1,0,0,-1,326.99897,152.41744)" d="M -8.5 -8.5 L 8.5 -8.5 L 8.5 8.5 L -8.5 8.5 Z "/>
</clipPath>
<g clip-path="url(#cp29)">
<path transform="matrix(1,0,0,-1,326.99897,152.41744)" d="M 0 -3.5 C .928211 -3.5 1.81853 -3.131218 2.474874 -2.474874 C 3.131218 -1.81853 3.5 -.928211 3.5 0 C 3.5 .928211 3.131218 1.81853 2.474874 2.474874 C 1.81853 3.131218 .928211 3.5 0 3.5 C -.928211 3.5 -1.81853 3.131218 -2.474874 2.474874 C -3.131218 1.81853 -3.5 .928211 -3.5 0 C -3.5 -.928211 -3.131218 -1.81853 -2.474874 -2.474874 C -1.81853 -3.131218 -.928211 -3.5 0 -3.5 Z " fill="#f08080"/>
<path transform="matrix(1,0,0,-1,326.99897,152.41744)" stroke-width="1" stroke-linecap="butt" stroke-linejoin="round" fill="none" stroke="#f08080" d="M 0 -3.5 C .928211 -3.5 1.81853 -3.131218 2.474874 -2.474874 C 3.131218 -1.81853 3.5 -.928211 3.5 0 C 3.5 .928211 3.131218 1.81853 2.474874 2.474874 C 1.81853 3.131218 .928211 3.5 0 3.5 C -.928211 3.5 -1.81853 3.131218 -2.474874 2.474874 C -3.131218 1.81853 -3.5 .928211 -3.5 0 C -3.5 -.928211 -3.131218 -1.81853 -2.474874 -2.474874 C -1.81853 -3.131218 -.928211 -3.5 0 -3.5 Z "/>
</g>
<clipPath id="cp30">
<path transform="matrix(1,0,0,-1,387.00648,166.0367)" d="M -8.5 -8.5 L 8.5 -8.5 L 8.5 8.5 L -8.5 8.5 Z "/>
</clipPath>
<g clip-path="url(#cp30)">
<path transform="matrix(1,0,0,-1,387.00648,166.0367)" d="M 0 -3.5 C .928211 -3.5 1.81853 -3.131218 2.474874 -2.474874 C 3.131218 -1.81853 3.5 -.928211 3.5 0 C 3.5 .928211 3.131218 1.81853 2.474874 2.474874 C 1.81853 3.131218 .928211 3.5 0 3.5 C -.928211 3.5 -1.81853 3.131218 -2.474874 2.474874 C -3.131218 1.81853 -3.5 .928211 -3.5 0 C -3.5 -.928211 -3.131218 -1.81853 -2.474874 -2.474874 C -1.81853 -3.131218 -.928211 -3.5 0 -3.5 Z " fill="#f08080"/>
<path transform="matrix(1,0,0,-1,387.00648,166.0367)" stroke-width="1" stroke-linecap="butt" stroke-linejoin="round" fill="none" stroke="#f08080" d="M 0 -3.5 C .928211 -3.5 1.81853 -3.131218 2.474874 -2.474874 C 3.131218 -1.81853 3.5 -.928211 3.5 0 C 3.5 .928211 3.131218 1.81853 2.474874 2.474874 C 1.81853 3.131218 .928211 3.5 0 3.5 C -.928211 3.5 -1.81853 3.131218 -2.474874 2.474874 C -3.131218 1.81853 -3.5 .928211 -3.5 0 C -3.5 -.928211 -3.131218 -1.81853 -2.474874 -2.474874 C -1.81853 -3.131218 -.928211 -3.5 0 -3.5 Z "/>
</g>
<clipPath id="cp31">
<path transform="matrix(1,0,0,-1,392.7425,161.77042)" d="M -8.5 -8.5 L 8.5 -8.5 L 8.5 8.5 L -8.5 8.5 Z "/>
</clipPath>
<g clip-path="url(#cp31)">
<path transform="matrix(1,0,0,-1,392.7425,161.77042)" d="M 0 -3.5 C .928211 -3.5 1.81853 -3.131218 2.474874 -2.474874 C 3.131218 -1.81853 3.5 -.928211 3.5 0 C 3.5 .928211 3.131218 1.81853 2.474874 2.474874 C 1.81853 3.131218 .928211 3.5 0 3.5 C -.928211 3.5 -1.81853 3.131218 -2.474874 2.474874 C -3.131218 1.81853 -3.5 .928211 -3.5 0 C -3.5 -.928211 -3.131218 -1.81853 -2.474874 -2.474874 C -1.81853 -3.131218 -.928211 -3.5 0 -3.5 Z " fill="#f08080"/>
<path transform="matrix(1,0,0,-1,392.7425,161.77042)" stroke-width="1" stroke-linecap="butt" stroke-linejoin="round" fill="none" stroke="#f08080" d="M 0 -3.5 C .928211 -3.5 1.81853 -3.131218 2.474874 -2.474874 C 3.131218 -1.81853 3.5 -.928211 3.5 0 C 3.5 .928211 3.131218 1.81853 2.474874 2.474874 C 1.81853 3.131218 .928211 3.5 0 3.5 C -.928211 3.5 -1.81853 3.131218 -2.474874 2.474874 C -3.131218 1.81853 -3.5 .928211 -3.5 0 C -3.5 -.928211 -3.131218 -1.81853 -2.474874 -2.474874 C -1.81853 -3.131218 -.928211 -3.5 0 -3.5 Z "/>
</g>
</g>
<path transform="matrix(1,0,0,-1,0,312.6275)" stroke-width=".5" stroke-linecap="square" stroke-miterlimit="10" stroke-linejoin="miter" fill="none" stroke="#000000" d="M 45.934377 42.8875 L 45.934377 305.4275 "/>
<path transform="matrix(1,0,0,-1,0,312.6275)" stroke-width=".5" stroke-linecap="square" stroke-miterlimit="10" stroke-linejoin="miter" fill="none" stroke="#000000" d="M 407.7444 42.8875 L 407.7444 305.4275 "/>
<path transform="matrix(1,0,0,-1,0,312.6275)" stroke-width=".5" stroke-linecap="square" stroke-miterlimit="10" stroke-linejoin="miter" fill="none" stroke="#000000" d="M 45.934377 42.8875 L 407.7444 42.8875 "/>
<path transform="matrix(1,0,0,-1,0,312.6275)" stroke-width=".5" stroke-linecap="square" stroke-miterlimit="10" stroke-linejoin="miter" fill="none" stroke="#000000" d="M 45.934377 305.4275 L 407.7444 305.4275 "/>
<g>
<path transform="matrix(1,0,0,-1,0,312.6275)" d="M 51.534376 46.8875 L 123.32188 46.8875 C 124.38854 46.8875 124.921878 47.420835 124.921878 48.4875 L 124.921878 95.5625 C 124.921878 96.629169 124.38854 97.1625 123.32188 97.1625 L 51.534376 97.1625 C 50.46771 97.1625 49.934377 96.629169 49.934377 95.5625 L 49.934377 48.4875 C 49.934377 47.420835 50.46771 46.8875 51.534376 46.8875 Z " fill="#ffffff" fill-opacity=".8"/>
<path transform="matrix(1,0,0,-1,0,312.6275)" stroke-width="1" stroke-linecap="butt" stroke-miterlimit="10" stroke-linejoin="miter" fill="none" stroke="#d5d6d5" stroke-opacity=".8" d="M 51.534376 46.8875 L 123.32188 46.8875 C 124.38854 46.8875 124.921878 47.420835 124.921878 48.4875 L 124.921878 95.5625 C 124.921878 96.629169 124.38854 97.1625 123.32188 97.1625 L 51.534376 97.1625 C 50.46771 97.1625 49.934377 96.629169 49.934377 95.5625 L 49.934377 48.4875 C 49.934377 47.420835 50.46771 46.8875 51.534376 46.8875 Z "/>
</g>
<path transform="matrix(1,0,0,-1,0,312.6275)" stroke-width="2" stroke-linecap="butt" stroke-dasharray="7.4,3.2" stroke-linejoin="round" fill="none" stroke="#f08080" d="M 53.134378 90.68437 L 69.13438 90.68437 "/>
<text xml:space="preserve" transform="matrix(1 0 -0 1 0 312.6275)" font-size="8" font-family="DejaVuSans"><tspan y="-87.88438" x="75.53438 81.69438 86.61438 91.68638 95.85438 100.774379 104.774379">Dense_6</tspan></text>
<path transform="matrix(1,0,0,-1,0,312.6275)" stroke-width="2" stroke-linecap="butt" stroke-dasharray="7.4,3.2" stroke-linejoin="round" fill="none" stroke="#f08080" d="M 53.134378 78.71562 L 69.13438 78.71562 "/>
<path transform="matrix(1,0,0,-1,0,312.6275)" d="M 59.384378 75.21562 L 61.134378 76.96562 L 62.884378 75.21562 L 64.63438 76.96562 L 62.884378 78.71562 L 64.63438 80.46562 L 62.884378 82.21562 L 61.134378 80.46562 L 59.384378 82.21562 L 57.634378 80.46562 L 59.384378 78.71562 L 57.634378 76.96562 Z " fill="#f08080"/>
<path transform="matrix(1,0,0,-1,0,312.6275)" stroke-width="1" stroke-linecap="butt" stroke-miterlimit="10" stroke-linejoin="miter" fill="none" stroke="#f08080" d="M 59.384378 75.21562 L 61.134378 76.96562 L 62.884378 75.21562 L 64.63438 76.96562 L 62.884378 78.71562 L 64.63438 80.46562 L 62.884378 82.21562 L 61.134378 80.46562 L 59.384378 82.21562 L 57.634378 80.46562 L 59.384378 78.71562 L 57.634378 76.96562 Z "/>
<text xml:space="preserve" transform="matrix(1 0 -0 1 0 312.6275)" font-size="8" font-family="DejaVuSans"><tspan y="-75.91563" x="75.53438 81.094379 85.998378 91.07037 96.150379 101.04638 108.83838 112.83838">Random_6</tspan></text>
<path transform="matrix(1,0,0,-1,0,312.6275)" stroke-width="2" stroke-linecap="butt" stroke-dasharray="7.4,3.2" stroke-linejoin="round" fill="none" stroke="#f08080" d="M 53.134378 66.74687 L 69.13438 66.74687 "/>
<path transform="matrix(1,0,0,-1,0,312.6275)" d="M 61.134378 61.797128 L 66.08412 66.74687 L 61.134378 71.696628 L 56.184629 66.74687 Z " fill="#f08080"/>
<path transform="matrix(1,0,0,-1,0,312.6275)" stroke-width="1" stroke-linecap="butt" stroke-miterlimit="10" stroke-linejoin="miter" fill="none" stroke="#f08080" d="M 61.134378 61.797128 L 66.08412 66.74687 L 61.134378 71.696628 L 56.184629 66.74687 Z "/>
<text xml:space="preserve" transform="matrix(1 0 -0 1 0 312.6275)" font-size="8" font-family="DejaVuSans"><tspan y="-63.946878" x="75.53438 82.43838 84.66238 89.734378 91.958377 99.750377 104.82237 112.61437 116.61437">Minimum_6</tspan></text>
<path transform="matrix(1,0,0,-1,0,312.6275)" stroke-width="2" stroke-linecap="butt" stroke-dasharray="7.4,3.2" stroke-linejoin="round" fill="none" stroke="#f08080" d="M 53.134378 54.778127 L 69.13438 54.778127 "/>
<path transform="matrix(1,0,0,-1,0,312.6275)" d="M 61.134378 51.278127 C 62.062589 51.278127 62.952905 51.646909 63.60925 52.30325 C 64.265598 52.959596 64.63438 53.849916 64.63438 54.778127 C 64.63438 55.706338 64.265598 56.596658 63.60925 57.253 C 62.952905 57.909345 62.062589 58.278127 61.134378 58.278127 C 60.206167 58.278127 59.315847 57.909345 58.6595 57.253 C 58.00316 56.596658 57.634378 55.706338 57.634378 54.778127 C 57.634378 53.849916 58.00316 52.959596 58.6595 52.30325 C 59.315847 51.646909 60.206167 51.278127 61.134378 51.278127 Z " fill="#f08080"/>
<path transform="matrix(1,0,0,-1,0,312.6275)" stroke-width="1" stroke-linecap="butt" stroke-linejoin="round" fill="none" stroke="#f08080" d="M 61.134378 51.278127 C 62.062589 51.278127 62.952905 51.646909 63.60925 52.30325 C 64.265598 52.959596 64.63438 53.849916 64.63438 54.778127 C 64.63438 55.706338 64.265598 56.596658 63.60925 57.253 C 62.952905 57.909345 62.062589 58.278127 61.134378 58.278127 C 60.206167 58.278127 59.315847 57.909345 58.6595 57.253 C 58.00316 56.596658 57.634378 55.706338 57.634378 54.778127 C 57.634378 53.849916 58.00316 52.959596 58.6595 52.30325 C 59.315847 51.646909 60.206167 51.278127 61.134378 51.278127 Z "/>
<text xml:space="preserve" transform="matrix(1 0 -0 1 0 312.6275)" font-size="8" font-family="DejaVuSans"><tspan y="-51.978128" x="75.53438 81.830379 86.902378 90.19038 94.358379 98.358379">Ours_6</tspan></text>
</g>
</g>
</svg>
