<?xml version="1.0" encoding="UTF-8" standalone="no"?>
<!DOCTYPE svg PUBLIC "-//W3C//DTD SVG 1.1//EN" "http://www.w3.org/Graphics/SVG/1.1/DTD/svg11.dtd">
<svg xmlns="http://www.w3.org/2000/svg" xmlns:xlink="http://www.w3.org/1999/xlink" version="1.1" width="414.8394pt" height="313.08656pt" viewBox="0 0 414.8394 313.08656">
<g enable-background="new">
<g>
<path transform="matrix(1,0,0,-1,0,313.08656)" d="M 0 0 L 414.8394 0 L 414.8394 313.08656 L 0 313.08656 Z " fill="#ffffff"/>
<path transform="matrix(1,0,0,-1,0,313.08656)" d="M 52.309377 47.73125 L 407.63938 47.73125 L 407.63938 300.19126 L 52.309377 300.19126 Z " fill="#ffffff"/>
<clipPath id="cp0">
<path transform="matrix(1,0,0,-1,0,313.08656)" d="M 52.309377 47.73125 L 407.63938 47.73125 L 407.63938 300.19126 L 52.309377 300.19126 Z "/>
</clipPath>
<g clip-path="url(#cp0)">
<path transform="matrix(1,0,0,-1,0,313.08656)" stroke-width=".5" stroke-linecap="square" stroke-linejoin="round" fill="none" stroke="#000000" stroke-opacity=".1" d="M 52.309377 47.73125 L 52.309377 300.19126 "/>
</g>
<path transform="matrix(1,0,0,-1,0,313.08656)" d="M 52.309377 47.73125 L 52.309377 43.73125 "/>
<path transform="matrix(1,0,0,-1,0,313.08656)" stroke-width=".8" stroke-linecap="butt" stroke-linejoin="round" fill="none" stroke="#000000" d="M 52.309377 47.73125 L 52.309377 43.73125 "/>
<text xml:space="preserve" transform="matrix(1 0 -0 1 42.7625 284.2459)" font-size="15" font-family="DejaVuSans"><tspan y="0" x="0 9.540001">91</tspan></text>
<clipPath id="cp1">
<path transform="matrix(1,0,0,-1,0,313.08656)" d="M 52.309377 47.73125 L 407.63938 47.73125 L 407.63938 300.19126 L 52.309377 300.19126 Z "/>
</clipPath>
<g clip-path="url(#cp1)">
<path transform="matrix(1,0,0,-1,0,313.08656)" stroke-width=".5" stroke-linecap="square" stroke-linejoin="round" fill="none" stroke="#000000" stroke-opacity=".1" d="M 109.62067 47.73125 L 109.62067 300.19126 "/>
</g>
<path transform="matrix(1,0,0,-1,0,313.08656)" d="M 109.62067 47.73125 L 109.62067 43.73125 "/>
<path transform="matrix(1,0,0,-1,0,313.08656)" stroke-width=".8" stroke-linecap="butt" stroke-linejoin="round" fill="none" stroke="#000000" d="M 109.62067 47.73125 L 109.62067 43.73125 "/>
<text xml:space="preserve" transform="matrix(1 0 -0 1 100.07379 284.2459)" font-size="15" font-family="DejaVuSans"><tspan y="0" x="0 9.540001">92</tspan></text>
<clipPath id="cp2">
<path transform="matrix(1,0,0,-1,0,313.08656)" d="M 52.309377 47.73125 L 407.63938 47.73125 L 407.63938 300.19126 L 52.309377 300.19126 Z "/>
</clipPath>
<g clip-path="url(#cp2)">
<path transform="matrix(1,0,0,-1,0,313.08656)" stroke-width=".5" stroke-linecap="square" stroke-linejoin="round" fill="none" stroke="#000000" stroke-opacity=".1" d="M 166.93196 47.73125 L 166.93196 300.19126 "/>
</g>
<path transform="matrix(1,0,0,-1,0,313.08656)" d="M 166.93196 47.73125 L 166.93196 43.73125 "/>
<path transform="matrix(1,0,0,-1,0,313.08656)" stroke-width=".8" stroke-linecap="butt" stroke-linejoin="round" fill="none" stroke="#000000" d="M 166.93196 47.73125 L 166.93196 43.73125 "/>
<text xml:space="preserve" transform="matrix(1 0 -0 1 157.38509 284.2459)" font-size="15" font-family="DejaVuSans"><tspan y="0" x="0 9.540001">93</tspan></text>
<clipPath id="cp3">
<path transform="matrix(1,0,0,-1,0,313.08656)" d="M 52.309377 47.73125 L 407.63938 47.73125 L 407.63938 300.19126 L 52.309377 300.19126 Z "/>
</clipPath>
<g clip-path="url(#cp3)">
<path transform="matrix(1,0,0,-1,0,313.08656)" stroke-width=".5" stroke-linecap="square" stroke-linejoin="round" fill="none" stroke="#000000" stroke-opacity=".1" d="M 224.24324 47.73125 L 224.24324 300.19126 "/>
</g>
<path transform="matrix(1,0,0,-1,0,313.08656)" d="M 224.24324 47.73125 L 224.24324 43.73125 "/>
<path transform="matrix(1,0,0,-1,0,313.08656)" stroke-width=".8" stroke-linecap="butt" stroke-linejoin="round" fill="none" stroke="#000000" d="M 224.24324 47.73125 L 224.24324 43.73125 "/>
<text xml:space="preserve" transform="matrix(1 0 -0 1 214.69637 284.2459)" font-size="15" font-family="DejaVuSans"><tspan y="0" x="0 9.540001">94</tspan></text>
<clipPath id="cp4">
<path transform="matrix(1,0,0,-1,0,313.08656)" d="M 52.309377 47.73125 L 407.63938 47.73125 L 407.63938 300.19126 L 52.309377 300.19126 Z "/>
</clipPath>
<g clip-path="url(#cp4)">
<path transform="matrix(1,0,0,-1,0,313.08656)" stroke-width=".5" stroke-linecap="square" stroke-linejoin="round" fill="none" stroke="#000000" stroke-opacity=".1" d="M 281.55455 47.73125 L 281.55455 300.19126 "/>
</g>
<path transform="matrix(1,0,0,-1,0,313.08656)" d="M 281.55455 47.73125 L 281.55455 43.73125 "/>
<path transform="matrix(1,0,0,-1,0,313.08656)" stroke-width=".8" stroke-linecap="butt" stroke-linejoin="round" fill="none" stroke="#000000" d="M 281.55455 47.73125 L 281.55455 43.73125 "/>
<text xml:space="preserve" transform="matrix(1 0 -0 1 272.00767 284.2459)" font-size="15" font-family="DejaVuSans"><tspan y="0" x="0 9.540001">95</tspan></text>
<clipPath id="cp5">
<path transform="matrix(1,0,0,-1,0,313.08656)" d="M 52.309377 47.73125 L 407.63938 47.73125 L 407.63938 300.19126 L 52.309377 300.19126 Z "/>
</clipPath>
<g clip-path="url(#cp5)">
<path transform="matrix(1,0,0,-1,0,313.08656)" stroke-width=".5" stroke-linecap="square" stroke-linejoin="round" fill="none" stroke="#000000" stroke-opacity=".1" d="M 338.8658 47.73125 L 338.8658 300.19126 "/>
</g>
<path transform="matrix(1,0,0,-1,0,313.08656)" d="M 338.8658 47.73125 L 338.8658 43.73125 "/>
<path transform="matrix(1,0,0,-1,0,313.08656)" stroke-width=".8" stroke-linecap="butt" stroke-linejoin="round" fill="none" stroke="#000000" d="M 338.8658 47.73125 L 338.8658 43.73125 "/>
<text xml:space="preserve" transform="matrix(1 0 -0 1 329.31895 284.2459)" font-size="15" font-family="DejaVuSans"><tspan y="0" x="0 9.540001">96</tspan></text>
<clipPath id="cp6">
<path transform="matrix(1,0,0,-1,0,313.08656)" d="M 52.309377 47.73125 L 407.63938 47.73125 L 407.63938 300.19126 L 52.309377 300.19126 Z "/>
</clipPath>
<g clip-path="url(#cp6)">
<path transform="matrix(1,0,0,-1,0,313.08656)" stroke-width=".5" stroke-linecap="square" stroke-linejoin="round" fill="none" stroke="#000000" stroke-opacity=".1" d="M 396.17713 47.73125 L 396.17713 300.19126 "/>
</g>
<path transform="matrix(1,0,0,-1,0,313.08656)" d="M 396.17713 47.73125 L 396.17713 43.73125 "/>
<path transform="matrix(1,0,0,-1,0,313.08656)" stroke-width=".8" stroke-linecap="butt" stroke-linejoin="round" fill="none" stroke="#000000" d="M 396.17713 47.73125 L 396.17713 43.73125 "/>
<text xml:space="preserve" transform="matrix(1 0 -0 1 386.63026 284.2459)" font-size="15" font-family="DejaVuSans"><tspan y="0" x="0 9.540001">97</tspan></text>
<text xml:space="preserve" transform="matrix(1 0 -0 1 126.575939 302.76155)" font-size="15" font-family="DejaVuSans"><tspan y="0" x="0 9.525001 13.695002 21.570002 30.795002 35.565004 46.035005 55.215005 69.825008 79.350009 85.18688 94.41188 102.22688 110.041889 114.21188 123.391887 132.90189 137.67189 147.76877 156.96378 162.84378 167.01378 176.19379 180.96379 186.8138 201.0638">Size Compression Ratio (%)</tspan></text>
<clipPath id="cp7">
<path transform="matrix(1,0,0,-1,0,313.08656)" d="M 52.309377 47.73125 L 407.63938 47.73125 L 407.63938 300.19126 L 52.309377 300.19126 Z "/>
</clipPath>
<g clip-path="url(#cp7)">
<path transform="matrix(1,0,0,-1,0,313.08656)" stroke-width=".5" stroke-linecap="square" stroke-linejoin="round" fill="none" stroke="#000000" stroke-opacity=".1" d="M 52.309377 47.73125 L 407.63938 47.73125 "/>
</g>
<path transform="matrix(1,0,0,-1,0,313.08656)" d="M 52.309377 47.73125 L 48.309377 47.73125 "/>
<path transform="matrix(1,0,0,-1,0,313.08656)" stroke-width=".8" stroke-linecap="butt" stroke-linejoin="round" fill="none" stroke="#000000" d="M 52.309377 47.73125 L 48.309377 47.73125 "/>
<text xml:space="preserve" transform="matrix(1 0 -0 1 25.715626 271.0506)" font-size="15" font-family="DejaVuSans"><tspan y="0" x="0 9.540001">55</tspan></text>
<clipPath id="cp8">
<path transform="matrix(1,0,0,-1,0,313.08656)" d="M 52.309377 47.73125 L 407.63938 47.73125 L 407.63938 300.19126 L 52.309377 300.19126 Z "/>
</clipPath>
<g clip-path="url(#cp8)">
<path transform="matrix(1,0,0,-1,0,313.08656)" stroke-width=".5" stroke-linecap="square" stroke-linejoin="round" fill="none" stroke="#000000" stroke-opacity=".1" d="M 52.309377 89.807918 L 407.63938 89.807918 "/>
</g>
<path transform="matrix(1,0,0,-1,0,313.08656)" d="M 52.309377 89.807918 L 48.309377 89.807918 "/>
<path transform="matrix(1,0,0,-1,0,313.08656)" stroke-width=".8" stroke-linecap="butt" stroke-linejoin="round" fill="none" stroke="#000000" d="M 52.309377 89.807918 L 48.309377 89.807918 "/>
<text xml:space="preserve" transform="matrix(1 0 -0 1 25.715626 228.97394)" font-size="15" font-family="DejaVuSans"><tspan y="0" x="0 9.540001">60</tspan></text>
<clipPath id="cp9">
<path transform="matrix(1,0,0,-1,0,313.08656)" d="M 52.309377 47.73125 L 407.63938 47.73125 L 407.63938 300.19126 L 52.309377 300.19126 Z "/>
</clipPath>
<g clip-path="url(#cp9)">
<path transform="matrix(1,0,0,-1,0,313.08656)" stroke-width=".5" stroke-linecap="square" stroke-linejoin="round" fill="none" stroke="#000000" stroke-opacity=".1" d="M 52.309377 131.88459 L 407.63938 131.88459 "/>
</g>
<path transform="matrix(1,0,0,-1,0,313.08656)" d="M 52.309377 131.88459 L 48.309377 131.88459 "/>
<path transform="matrix(1,0,0,-1,0,313.08656)" stroke-width=".8" stroke-linecap="butt" stroke-linejoin="round" fill="none" stroke="#000000" d="M 52.309377 131.88459 L 48.309377 131.88459 "/>
<text xml:space="preserve" transform="matrix(1 0 -0 1 25.715626 186.89728)" font-size="15" font-family="DejaVuSans"><tspan y="0" x="0 9.540001">65</tspan></text>
<clipPath id="cp10">
<path transform="matrix(1,0,0,-1,0,313.08656)" d="M 52.309377 47.73125 L 407.63938 47.73125 L 407.63938 300.19126 L 52.309377 300.19126 Z "/>
</clipPath>
<g clip-path="url(#cp10)">
<path transform="matrix(1,0,0,-1,0,313.08656)" stroke-width=".5" stroke-linecap="square" stroke-linejoin="round" fill="none" stroke="#000000" stroke-opacity=".1" d="M 52.309377 173.96125 L 407.63938 173.96125 "/>
</g>
<path transform="matrix(1,0,0,-1,0,313.08656)" d="M 52.309377 173.96125 L 48.309377 173.96125 "/>
<path transform="matrix(1,0,0,-1,0,313.08656)" stroke-width=".8" stroke-linecap="butt" stroke-linejoin="round" fill="none" stroke="#000000" d="M 52.309377 173.96125 L 48.309377 173.96125 "/>
<text xml:space="preserve" transform="matrix(1 0 -0 1 25.715626 144.82062)" font-size="15" font-family="DejaVuSans"><tspan y="0" x="0 9.540001">70</tspan></text>
<clipPath id="cp11">
<path transform="matrix(1,0,0,-1,0,313.08656)" d="M 52.309377 47.73125 L 407.63938 47.73125 L 407.63938 300.19126 L 52.309377 300.19126 Z "/>
</clipPath>
<g clip-path="url(#cp11)">
<path transform="matrix(1,0,0,-1,0,313.08656)" stroke-width=".5" stroke-linecap="square" stroke-linejoin="round" fill="none" stroke="#000000" stroke-opacity=".1" d="M 52.309377 216.03792 L 407.63938 216.03792 "/>
</g>
<path transform="matrix(1,0,0,-1,0,313.08656)" d="M 52.309377 216.03792 L 48.309377 216.03792 "/>
<path transform="matrix(1,0,0,-1,0,313.08656)" stroke-width=".8" stroke-linecap="butt" stroke-linejoin="round" fill="none" stroke="#000000" d="M 52.309377 216.03792 L 48.309377 216.03792 "/>
<text xml:space="preserve" transform="matrix(1 0 -0 1 25.715626 102.74394)" font-size="15" font-family="DejaVuSans"><tspan y="0" x="0 9.540001">75</tspan></text>
<clipPath id="cp12">
<path transform="matrix(1,0,0,-1,0,313.08656)" d="M 52.309377 47.73125 L 407.63938 47.73125 L 407.63938 300.19126 L 52.309377 300.19126 Z "/>
</clipPath>
<g clip-path="url(#cp12)">
<path transform="matrix(1,0,0,-1,0,313.08656)" stroke-width=".5" stroke-linecap="square" stroke-linejoin="round" fill="none" stroke="#000000" stroke-opacity=".1" d="M 52.309377 258.1146 L 407.63938 258.1146 "/>
</g>
<path transform="matrix(1,0,0,-1,0,313.08656)" d="M 52.309377 258.1146 L 48.309377 258.1146 "/>
<path transform="matrix(1,0,0,-1,0,313.08656)" stroke-width=".8" stroke-linecap="butt" stroke-linejoin="round" fill="none" stroke="#000000" d="M 52.309377 258.1146 L 48.309377 258.1146 "/>
<text xml:space="preserve" transform="matrix(1 0 -0 1 25.715626 60.667284)" font-size="15" font-family="DejaVuSans"><tspan y="0" x="0 9.540001">80</tspan></text>
<clipPath id="cp13">
<path transform="matrix(1,0,0,-1,0,313.08656)" d="M 52.309377 47.73125 L 407.63938 47.73125 L 407.63938 300.19126 L 52.309377 300.19126 Z "/>
</clipPath>
<g clip-path="url(#cp13)">
<path transform="matrix(1,0,0,-1,0,313.08656)" stroke-width=".5" stroke-linecap="square" stroke-linejoin="round" fill="none" stroke="#000000" stroke-opacity=".1" d="M 52.309377 300.19126 L 407.63938 300.19126 "/>
</g>
<path transform="matrix(1,0,0,-1,0,313.08656)" d="M 52.309377 300.19126 L 48.309377 300.19126 "/>
<path transform="matrix(1,0,0,-1,0,313.08656)" stroke-width=".8" stroke-linecap="butt" stroke-linejoin="round" fill="none" stroke="#000000" d="M 52.309377 300.19126 L 48.309377 300.19126 "/>
<text xml:space="preserve" transform="matrix(1 0 -0 1 25.715626 18.590607)" font-size="15" font-family="DejaVuSans"><tspan y="0" x="0 9.540001">85</tspan></text>
<text xml:space="preserve" transform="matrix(0 -1 1 0 18.590626 167.7503)" font-size="15" font-family="DejaVuSans"><tspan y="0" x="0 10.01 18.26 26.51 31.28 37.13 51.38">Acc (%)</tspan></text>
<clipPath id="cp14">
<path transform="matrix(1,0,0,-1,0,313.08656)" d="M 52.309377 47.73125 L 407.63938 47.73125 L 407.63938 300.19126 L 52.309377 300.19126 Z "/>
</clipPath>
<g clip-path="url(#cp14)">
<path transform="matrix(1,0,0,-1,0,313.08656)" stroke-width="2" stroke-linecap="butt" stroke-dasharray="7.4,3.2" stroke-linejoin="round" fill="none" stroke="#f08080" d="M -1 274.18788 L 415.8394 274.18788 "/>
</g>
<clipPath id="cp15">
<path transform="matrix(1,0,0,-1,0,313.08656)" d="M 52.309377 47.73125 L 407.63938 47.73125 L 407.63938 300.19126 L 52.309377 300.19126 Z "/>
</clipPath>
<g clip-path="url(#cp15)">
<path transform="matrix(1,0,0,-1,0,313.08656)" stroke-width="2" stroke-linecap="square" stroke-linejoin="round" fill="none" stroke="#f08080" d="M 109.62067 147.11634 L 224.24324 116.98944 L 338.8658 69.44281 "/>
<clipPath id="cp16">
<path transform="matrix(1,0,0,-1,109.62067,165.97022)" d="M -9.949747 -9.949747 L 9.949747 -9.949747 L 9.949747 9.949747 L -9.949747 9.949747 Z "/>
</clipPath>
<g clip-path="url(#cp16)">
<path transform="matrix(1,0,0,-1,109.62067,165.97022)" d="M 0 -4.949747 L 4.949747 0 L 0 4.949747 L -4.949747 0 Z " fill="#f08080"/>
<path transform="matrix(1,0,0,-1,109.62067,165.97022)" stroke-width="1" stroke-linecap="butt" stroke-miterlimit="10" stroke-linejoin="miter" fill="none" stroke="#f08080" d="M 0 -4.949747 L 4.949747 0 L 0 4.949747 L -4.949747 0 Z "/>
</g>
<clipPath id="cp17">
<path transform="matrix(1,0,0,-1,224.24326,196.0971)" d="M -9.949747 -9.949747 L 9.949747 -9.949747 L 9.949747 9.949747 L -9.949747 9.949747 Z "/>
</clipPath>
<g clip-path="url(#cp17)">
<path transform="matrix(1,0,0,-1,224.24326,196.0971)" d="M 0 -4.949747 L 4.949747 0 L 0 4.949747 L -4.949747 0 Z " fill="#f08080"/>
<path transform="matrix(1,0,0,-1,224.24326,196.0971)" stroke-width="1" stroke-linecap="butt" stroke-miterlimit="10" stroke-linejoin="miter" fill="none" stroke="#f08080" d="M 0 -4.949747 L 4.949747 0 L 0 4.949747 L -4.949747 0 Z "/>
</g>
<clipPath id="cp18">
<path transform="matrix(1,0,0,-1,338.86585,243.64374)" d="M -9.949747 -9.949747 L 9.949747 -9.949747 L 9.949747 9.949747 L -9.949747 9.949747 Z "/>
</clipPath>
<g clip-path="url(#cp18)">
<path transform="matrix(1,0,0,-1,338.86585,243.64374)" d="M 0 -4.949747 L 4.949747 0 L 0 4.949747 L -4.949747 0 Z " fill="#f08080"/>
<path transform="matrix(1,0,0,-1,338.86585,243.64374)" stroke-width="1" stroke-linecap="butt" stroke-miterlimit="10" stroke-linejoin="miter" fill="none" stroke="#f08080" d="M 0 -4.949747 L 4.949747 0 L 0 4.949747 L -4.949747 0 Z "/>
</g>
</g>
<clipPath id="cp19">
<path transform="matrix(1,0,0,-1,0,313.08656)" d="M 52.309377 47.73125 L 407.63938 47.73125 L 407.63938 300.19126 L 52.309377 300.19126 Z "/>
</clipPath>
<g clip-path="url(#cp19)">
<path transform="matrix(1,0,0,-1,0,313.08656)" stroke-width="2" stroke-linecap="square" stroke-linejoin="round" fill="none" stroke="#d8bfd8" d="M 329.1229 197.60834 L 384.14176 196.7668 L 389.87287 195.84111 "/>
<clipPath id="cp20">
<path transform="matrix(1,0,0,-1,329.1229,115.47821)" d="M -8.5 -8.5 L 8.5 -8.5 L 8.5 8.5 L -8.5 8.5 Z "/>
</clipPath>
<g clip-path="url(#cp20)">
<path transform="matrix(1,0,0,-1,329.1229,115.47821)" d="M 0 -3.5 C .928211 -3.5 1.81853 -3.131218 2.474874 -2.474874 C 3.131218 -1.81853 3.5 -.928211 3.5 0 C 3.5 .928211 3.131218 1.81853 2.474874 2.474874 C 1.81853 3.131218 .928211 3.5 0 3.5 C -.928211 3.5 -1.81853 3.131218 -2.474874 2.474874 C -3.131218 1.81853 -3.5 .928211 -3.5 0 C -3.5 -.928211 -3.131218 -1.81853 -2.474874 -2.474874 C -1.81853 -3.131218 -.928211 -3.5 0 -3.5 Z " fill="#d8bfd8"/>
<path transform="matrix(1,0,0,-1,329.1229,115.47821)" stroke-width="1" stroke-linecap="butt" stroke-linejoin="round" fill="none" stroke="#d8bfd8" d="M 0 -3.5 C .928211 -3.5 1.81853 -3.131218 2.474874 -2.474874 C 3.131218 -1.81853 3.5 -.928211 3.5 0 C 3.5 .928211 3.131218 1.81853 2.474874 2.474874 C 1.81853 3.131218 .928211 3.5 0 3.5 C -.928211 3.5 -1.81853 3.131218 -2.474874 2.474874 C -3.131218 1.81853 -3.5 .928211 -3.5 0 C -3.5 -.928211 -3.131218 -1.81853 -2.474874 -2.474874 C -1.81853 -3.131218 -.928211 -3.5 0 -3.5 Z "/>
</g>
<clipPath id="cp21">
<path transform="matrix(1,0,0,-1,384.14173,116.31974)" d="M -8.5 -8.5 L 8.5 -8.5 L 8.5 8.5 L -8.5 8.5 Z "/>
</clipPath>
<g clip-path="url(#cp21)">
<path transform="matrix(1,0,0,-1,384.14173,116.31974)" d="M 0 -3.5 C .928211 -3.5 1.81853 -3.131218 2.474874 -2.474874 C 3.131218 -1.81853 3.5 -.928211 3.5 0 C 3.5 .928211 3.131218 1.81853 2.474874 2.474874 C 1.81853 3.131218 .928211 3.5 0 3.5 C -.928211 3.5 -1.81853 3.131218 -2.474874 2.474874 C -3.131218 1.81853 -3.5 .928211 -3.5 0 C -3.5 -.928211 -3.131218 -1.81853 -2.474874 -2.474874 C -1.81853 -3.131218 -.928211 -3.5 0 -3.5 Z " fill="#d8bfd8"/>
<path transform="matrix(1,0,0,-1,384.14173,116.31974)" stroke-width="1" stroke-linecap="butt" stroke-linejoin="round" fill="none" stroke="#d8bfd8" d="M 0 -3.5 C .928211 -3.5 1.81853 -3.131218 2.474874 -2.474874 C 3.131218 -1.81853 3.5 -.928211 3.5 0 C 3.5 .928211 3.131218 1.81853 2.474874 2.474874 C 1.81853 3.131218 .928211 3.5 0 3.5 C -.928211 3.5 -1.81853 3.131218 -2.474874 2.474874 C -3.131218 1.81853 -3.5 .928211 -3.5 0 C -3.5 -.928211 -3.131218 -1.81853 -2.474874 -2.474874 C -1.81853 -3.131218 -.928211 -3.5 0 -3.5 Z "/>
</g>
<clipPath id="cp22">
<path transform="matrix(1,0,0,-1,389.87287,117.24543)" d="M -8.5 -8.5 L 8.5 -8.5 L 8.5 8.5 L -8.5 8.5 Z "/>
</clipPath>
<g clip-path="url(#cp22)">
<path transform="matrix(1,0,0,-1,389.87287,117.24543)" d="M 0 -3.5 C .928211 -3.5 1.81853 -3.131218 2.474874 -2.474874 C 3.131218 -1.81853 3.5 -.928211 3.5 0 C 3.5 .928211 3.131218 1.81853 2.474874 2.474874 C 1.81853 3.131218 .928211 3.5 0 3.5 C -.928211 3.5 -1.81853 3.131218 -2.474874 2.474874 C -3.131218 1.81853 -3.5 .928211 -3.5 0 C -3.5 -.928211 -3.131218 -1.81853 -2.474874 -2.474874 C -1.81853 -3.131218 -.928211 -3.5 0 -3.5 Z " fill="#d8bfd8"/>
<path transform="matrix(1,0,0,-1,389.87287,117.24543)" stroke-width="1" stroke-linecap="butt" stroke-linejoin="round" fill="none" stroke="#d8bfd8" d="M 0 -3.5 C .928211 -3.5 1.81853 -3.131218 2.474874 -2.474874 C 3.131218 -1.81853 3.5 -.928211 3.5 0 C 3.5 .928211 3.131218 1.81853 2.474874 2.474874 C 1.81853 3.131218 .928211 3.5 0 3.5 C -.928211 3.5 -1.81853 3.131218 -2.474874 2.474874 C -3.131218 1.81853 -3.5 .928211 -3.5 0 C -3.5 -.928211 -3.131218 -1.81853 -2.474874 -2.474874 C -1.81853 -3.131218 -.928211 -3.5 0 -3.5 Z "/>
</g>
</g>
<path transform="matrix(1,0,0,-1,0,313.08656)" stroke-width=".5" stroke-linecap="square" stroke-miterlimit="10" stroke-linejoin="miter" fill="none" stroke="#000000" d="M 52.309377 47.73125 L 52.309377 300.19126 "/>
<path transform="matrix(1,0,0,-1,0,313.08656)" stroke-width=".5" stroke-linecap="square" stroke-miterlimit="10" stroke-linejoin="miter" fill="none" stroke="#000000" d="M 407.63938 47.73125 L 407.63938 300.19126 "/>
<path transform="matrix(1,0,0,-1,0,313.08656)" stroke-width=".5" stroke-linecap="square" stroke-miterlimit="10" stroke-linejoin="miter" fill="none" stroke="#000000" d="M 52.309377 47.73125 L 407.63938 47.73125 "/>
<path transform="matrix(1,0,0,-1,0,313.08656)" stroke-width=".5" stroke-linecap="square" stroke-miterlimit="10" stroke-linejoin="miter" fill="none" stroke="#000000" d="M 52.309377 300.19126 L 407.63938 300.19126 "/>
<g>
<path transform="matrix(1,0,0,-1,0,313.08656)" d="M 59.309377 52.73125 L 155.40312 52.73125 C 156.73647 52.73125 157.40312 53.39792 157.40312 54.73125 L 157.40312 98.59062 C 157.40312 99.92396 156.73647 100.59062 155.40312 100.59062 L 59.309377 100.59062 C 57.976045 100.59062 57.309377 99.92396 57.309377 98.59062 L 57.309377 54.73125 C 57.309377 53.39792 57.976045 52.73125 59.309377 52.73125 Z " fill="#ffffff" fill-opacity=".8"/>
<path transform="matrix(1,0,0,-1,0,313.08656)" stroke-width="1" stroke-linecap="butt" stroke-miterlimit="10" stroke-linejoin="miter" fill="none" stroke="#d5d6d5" stroke-opacity=".8" d="M 59.309377 52.73125 L 155.40312 52.73125 C 156.73647 52.73125 157.40312 53.39792 157.40312 54.73125 L 157.40312 98.59062 C 157.40312 99.92396 156.73647 100.59062 155.40312 100.59062 L 59.309377 100.59062 C 57.976045 100.59062 57.309377 99.92396 57.309377 98.59062 L 57.309377 54.73125 C 57.309377 53.39792 57.976045 52.73125 59.309377 52.73125 Z "/>
</g>
<path transform="matrix(1,0,0,-1,0,313.08656)" stroke-width="2" stroke-linecap="butt" stroke-dasharray="7.4,3.2" stroke-linejoin="round" fill="none" stroke="#f08080" d="M 61.309377 92.49687 L 81.30937 92.49687 "/>
<text xml:space="preserve" transform="matrix(1 0 -0 1 89.30937 224.08968)" font-size="10" font-family="DejaVuSans"><tspan y="0" x="0 7.7000005 13.85 20.19 25.400002 31.550002 36.550004 42.910005">Dense_50</tspan></text>
<path transform="matrix(1,0,0,-1,0,313.08656)" stroke-width="2" stroke-linecap="square" stroke-linejoin="round" fill="none" stroke="#f08080" d="M 61.309377 77.54375 L 81.30937 77.54375 "/>
<path transform="matrix(1,0,0,-1,0,313.08656)" d="M 71.30937 72.594 L 76.259128 77.54375 L 71.30937 82.4935 L 66.35963 77.54375 Z " fill="#f08080"/>
<path transform="matrix(1,0,0,-1,0,313.08656)" stroke-width="1" stroke-linecap="butt" stroke-miterlimit="10" stroke-linejoin="miter" fill="none" stroke="#f08080" d="M 71.30937 72.594 L 76.259128 77.54375 L 71.30937 82.4935 L 66.35963 77.54375 Z "/>
<text xml:space="preserve" transform="matrix(1 0 -0 1 89.30937 239.0428)" font-size="10" font-family="DejaVuSans"><tspan y="0" x="0 8.63 11.41 17.75 20.53 30.27 36.61 46.350004 51.350004 57.710004">Minimum_50</tspan></text>
<path transform="matrix(1,0,0,-1,0,313.08656)" stroke-width="2" stroke-linecap="square" stroke-linejoin="round" fill="none" stroke="#d8bfd8" d="M 61.309377 62.590627 L 81.30937 62.590627 "/>
<path transform="matrix(1,0,0,-1,0,313.08656)" d="M 71.30937 59.090627 C 72.23759 59.090627 73.12791 59.459409 73.78425 60.11575 C 74.44059 60.772096 74.80937 61.662416 74.80937 62.590627 C 74.80937 63.518838 74.44059 64.40916 73.78425 65.0655 C 73.12791 65.72184 72.23759 66.09062 71.30937 66.09062 C 70.381168 66.09062 69.490848 65.72184 68.8345 65.0655 C 68.178157 64.40916 67.80937 63.518838 67.80937 62.590627 C 67.80937 61.662416 68.178157 60.772096 68.8345 60.11575 C 69.490848 59.459409 70.381168 59.090627 71.30937 59.090627 Z " fill="#d8bfd8"/>
<path transform="matrix(1,0,0,-1,0,313.08656)" stroke-width="1" stroke-linecap="butt" stroke-linejoin="round" fill="none" stroke="#d8bfd8" d="M 71.30937 59.090627 C 72.23759 59.090627 73.12791 59.459409 73.78425 60.11575 C 74.44059 60.772096 74.80937 61.662416 74.80937 62.590627 C 74.80937 63.518838 74.44059 64.40916 73.78425 65.0655 C 73.12791 65.72184 72.23759 66.09062 71.30937 66.09062 C 70.381168 66.09062 69.490848 65.72184 68.8345 65.0655 C 68.178157 64.40916 67.80937 63.518838 67.80937 62.590627 C 67.80937 61.662416 68.178157 60.772096 68.8345 60.11575 C 69.490848 59.459409 70.381168 59.090627 71.30937 59.090627 Z "/>
<text xml:space="preserve" transform="matrix(1 0 -0 1 89.30937 253.99593)" font-size="10" font-family="DejaVuSans"><tspan y="0" x="0 7.870001 14.210001 18.320002 23.530003 28.530003 34.890005">Ours_50</tspan></text>
</g>
</g>
</svg>
