<?xml version="1.0" encoding="UTF-8" standalone="no"?>
<!DOCTYPE svg PUBLIC "-//W3C//DTD SVG 1.1//EN" "http://www.w3.org/Graphics/SVG/1.1/DTD/svg11.dtd">
<svg xmlns="http://www.w3.org/2000/svg" xmlns:xlink="http://www.w3.org/1999/xlink" version="1.1" width="414.7494pt" height="313.15126pt" viewBox="0 0 414.7494 313.15126">
<g enable-background="new">
<g>
<path transform="matrix(1,0,0,-1,0,313.15126)" d="M 0 0 L 414.7494 0 L 414.7494 313.15126 L 0 313.15126 Z " fill="#ffffff"/>
<path transform="matrix(1,0,0,-1,0,313.15126)" d="M 52.309377 47.73125 L 407.54939 47.73125 L 407.54939 305.95127 L 52.309377 305.95127 Z " fill="#ffffff"/>
<clipPath id="cp0">
<path transform="matrix(1,0,0,-1,0,313.15126)" d="M 52.309377 47.73125 L 407.54939 47.73125 L 407.54939 305.95127 L 52.309377 305.95127 Z "/>
</clipPath>
<g clip-path="url(#cp0)">
<path transform="matrix(1,0,0,-1,0,313.15126)" stroke-width=".5" stroke-linecap="square" stroke-linejoin="round" fill="none" stroke="#000000" stroke-opacity=".1" d="M 52.309377 47.73125 L 52.309377 305.95127 "/>
</g>
<path transform="matrix(1,0,0,-1,0,313.15126)" d="M 52.309377 47.73125 L 52.309377 43.73125 "/>
<path transform="matrix(1,0,0,-1,0,313.15126)" stroke-width=".8" stroke-linecap="butt" stroke-linejoin="round" fill="none" stroke="#000000" d="M 52.309377 47.73125 L 52.309377 43.73125 "/>
<text xml:space="preserve" transform="matrix(1 0 -0 1 42.7625 284.3106)" font-size="15" font-family="DejaVuSans"><tspan y="0" x="0 9.540001">91</tspan></text>
<clipPath id="cp1">
<path transform="matrix(1,0,0,-1,0,313.15126)" d="M 52.309377 47.73125 L 407.54939 47.73125 L 407.54939 305.95127 L 52.309377 305.95127 Z "/>
</clipPath>
<g clip-path="url(#cp1)">
<path transform="matrix(1,0,0,-1,0,313.15126)" stroke-width=".5" stroke-linecap="square" stroke-linejoin="round" fill="none" stroke="#000000" stroke-opacity=".1" d="M 109.60615 47.73125 L 109.60615 305.95127 "/>
</g>
<path transform="matrix(1,0,0,-1,0,313.15126)" d="M 109.60615 47.73125 L 109.60615 43.73125 "/>
<path transform="matrix(1,0,0,-1,0,313.15126)" stroke-width=".8" stroke-linecap="butt" stroke-linejoin="round" fill="none" stroke="#000000" d="M 109.60615 47.73125 L 109.60615 43.73125 "/>
<text xml:space="preserve" transform="matrix(1 0 -0 1 100.05927 284.3106)" font-size="15" font-family="DejaVuSans"><tspan y="0" x="0 9.540001">92</tspan></text>
<clipPath id="cp2">
<path transform="matrix(1,0,0,-1,0,313.15126)" d="M 52.309377 47.73125 L 407.54939 47.73125 L 407.54939 305.95127 L 52.309377 305.95127 Z "/>
</clipPath>
<g clip-path="url(#cp2)">
<path transform="matrix(1,0,0,-1,0,313.15126)" stroke-width=".5" stroke-linecap="square" stroke-linejoin="round" fill="none" stroke="#000000" stroke-opacity=".1" d="M 166.90293 47.73125 L 166.90293 305.95127 "/>
</g>
<path transform="matrix(1,0,0,-1,0,313.15126)" d="M 166.90293 47.73125 L 166.90293 43.73125 "/>
<path transform="matrix(1,0,0,-1,0,313.15126)" stroke-width=".8" stroke-linecap="butt" stroke-linejoin="round" fill="none" stroke="#000000" d="M 166.90293 47.73125 L 166.90293 43.73125 "/>
<text xml:space="preserve" transform="matrix(1 0 -0 1 157.35605 284.3106)" font-size="15" font-family="DejaVuSans"><tspan y="0" x="0 9.540001">93</tspan></text>
<clipPath id="cp3">
<path transform="matrix(1,0,0,-1,0,313.15126)" d="M 52.309377 47.73125 L 407.54939 47.73125 L 407.54939 305.95127 L 52.309377 305.95127 Z "/>
</clipPath>
<g clip-path="url(#cp3)">
<path transform="matrix(1,0,0,-1,0,313.15126)" stroke-width=".5" stroke-linecap="square" stroke-linejoin="round" fill="none" stroke="#000000" stroke-opacity=".1" d="M 224.19969 47.73125 L 224.19969 305.95127 "/>
</g>
<path transform="matrix(1,0,0,-1,0,313.15126)" d="M 224.19969 47.73125 L 224.19969 43.73125 "/>
<path transform="matrix(1,0,0,-1,0,313.15126)" stroke-width=".8" stroke-linecap="butt" stroke-linejoin="round" fill="none" stroke="#000000" d="M 224.19969 47.73125 L 224.19969 43.73125 "/>
<text xml:space="preserve" transform="matrix(1 0 -0 1 214.65282 284.3106)" font-size="15" font-family="DejaVuSans"><tspan y="0" x="0 9.540001">94</tspan></text>
<clipPath id="cp4">
<path transform="matrix(1,0,0,-1,0,313.15126)" d="M 52.309377 47.73125 L 407.54939 47.73125 L 407.54939 305.95127 L 52.309377 305.95127 Z "/>
</clipPath>
<g clip-path="url(#cp4)">
<path transform="matrix(1,0,0,-1,0,313.15126)" stroke-width=".5" stroke-linecap="square" stroke-linejoin="round" fill="none" stroke="#000000" stroke-opacity=".1" d="M 281.49647 47.73125 L 281.49647 305.95127 "/>
</g>
<path transform="matrix(1,0,0,-1,0,313.15126)" d="M 281.49647 47.73125 L 281.49647 43.73125 "/>
<path transform="matrix(1,0,0,-1,0,313.15126)" stroke-width=".8" stroke-linecap="butt" stroke-linejoin="round" fill="none" stroke="#000000" d="M 281.49647 47.73125 L 281.49647 43.73125 "/>
<text xml:space="preserve" transform="matrix(1 0 -0 1 271.9496 284.3106)" font-size="15" font-family="DejaVuSans"><tspan y="0" x="0 9.540001">95</tspan></text>
<clipPath id="cp5">
<path transform="matrix(1,0,0,-1,0,313.15126)" d="M 52.309377 47.73125 L 407.54939 47.73125 L 407.54939 305.95127 L 52.309377 305.95127 Z "/>
</clipPath>
<g clip-path="url(#cp5)">
<path transform="matrix(1,0,0,-1,0,313.15126)" stroke-width=".5" stroke-linecap="square" stroke-linejoin="round" fill="none" stroke="#000000" stroke-opacity=".1" d="M 338.79325 47.73125 L 338.79325 305.95127 "/>
</g>
<path transform="matrix(1,0,0,-1,0,313.15126)" d="M 338.79325 47.73125 L 338.79325 43.73125 "/>
<path transform="matrix(1,0,0,-1,0,313.15126)" stroke-width=".8" stroke-linecap="butt" stroke-linejoin="round" fill="none" stroke="#000000" d="M 338.79325 47.73125 L 338.79325 43.73125 "/>
<text xml:space="preserve" transform="matrix(1 0 -0 1 329.24638 284.3106)" font-size="15" font-family="DejaVuSans"><tspan y="0" x="0 9.540001">96</tspan></text>
<clipPath id="cp6">
<path transform="matrix(1,0,0,-1,0,313.15126)" d="M 52.309377 47.73125 L 407.54939 47.73125 L 407.54939 305.95127 L 52.309377 305.95127 Z "/>
</clipPath>
<g clip-path="url(#cp6)">
<path transform="matrix(1,0,0,-1,0,313.15126)" stroke-width=".5" stroke-linecap="square" stroke-linejoin="round" fill="none" stroke="#000000" stroke-opacity=".1" d="M 396.09004 47.73125 L 396.09004 305.95127 "/>
</g>
<path transform="matrix(1,0,0,-1,0,313.15126)" d="M 396.09004 47.73125 L 396.09004 43.73125 "/>
<path transform="matrix(1,0,0,-1,0,313.15126)" stroke-width=".8" stroke-linecap="butt" stroke-linejoin="round" fill="none" stroke="#000000" d="M 396.09004 47.73125 L 396.09004 43.73125 "/>
<text xml:space="preserve" transform="matrix(1 0 -0 1 386.54316 284.3106)" font-size="15" font-family="DejaVuSans"><tspan y="0" x="0 9.540001">97</tspan></text>
<text xml:space="preserve" transform="matrix(1 0 -0 1 126.53094 302.82624)" font-size="15" font-family="DejaVuSans"><tspan y="0" x="0 9.525001 13.695002 21.570002 30.795002 35.565004 46.035005 55.215005 69.825008 79.350009 85.18688 94.41188 102.22688 110.041889 114.21188 123.391887 132.90189 137.67189 147.76877 156.96378 162.84378 167.01378 176.19379 180.96379 186.8138 201.0638">Size Compression Ratio (%)</tspan></text>
<clipPath id="cp7">
<path transform="matrix(1,0,0,-1,0,313.15126)" d="M 52.309377 47.73125 L 407.54939 47.73125 L 407.54939 305.95127 L 52.309377 305.95127 Z "/>
</clipPath>
<g clip-path="url(#cp7)">
<path transform="matrix(1,0,0,-1,0,313.15126)" stroke-width=".5" stroke-linecap="square" stroke-linejoin="round" fill="none" stroke="#000000" stroke-opacity=".1" d="M 52.309377 47.73125 L 407.54939 47.73125 "/>
</g>
<path transform="matrix(1,0,0,-1,0,313.15126)" d="M 52.309377 47.73125 L 48.309377 47.73125 "/>
<path transform="matrix(1,0,0,-1,0,313.15126)" stroke-width=".8" stroke-linecap="butt" stroke-linejoin="round" fill="none" stroke="#000000" d="M 52.309377 47.73125 L 48.309377 47.73125 "/>
<text xml:space="preserve" transform="matrix(1 0 -0 1 25.715626 271.1153)" font-size="15" font-family="DejaVuSans"><tspan y="0" x="0 9.540001">65</tspan></text>
<clipPath id="cp8">
<path transform="matrix(1,0,0,-1,0,313.15126)" d="M 52.309377 47.73125 L 407.54939 47.73125 L 407.54939 305.95127 L 52.309377 305.95127 Z "/>
</clipPath>
<g clip-path="url(#cp8)">
<path transform="matrix(1,0,0,-1,0,313.15126)" stroke-width=".5" stroke-linecap="square" stroke-linejoin="round" fill="none" stroke="#000000" stroke-opacity=".1" d="M 52.309377 92.63908 L 407.54939 92.63908 "/>
</g>
<path transform="matrix(1,0,0,-1,0,313.15126)" d="M 52.309377 92.63908 L 48.309377 92.63908 "/>
<path transform="matrix(1,0,0,-1,0,313.15126)" stroke-width=".8" stroke-linecap="butt" stroke-linejoin="round" fill="none" stroke="#000000" d="M 52.309377 92.63908 L 48.309377 92.63908 "/>
<text xml:space="preserve" transform="matrix(1 0 -0 1 25.715626 226.20749)" font-size="15" font-family="DejaVuSans"><tspan y="0" x="0 9.540001">69</tspan></text>
<clipPath id="cp9">
<path transform="matrix(1,0,0,-1,0,313.15126)" d="M 52.309377 47.73125 L 407.54939 47.73125 L 407.54939 305.95127 L 52.309377 305.95127 Z "/>
</clipPath>
<g clip-path="url(#cp9)">
<path transform="matrix(1,0,0,-1,0,313.15126)" stroke-width=".5" stroke-linecap="square" stroke-linejoin="round" fill="none" stroke="#000000" stroke-opacity=".1" d="M 52.309377 137.5469 L 407.54939 137.5469 "/>
</g>
<path transform="matrix(1,0,0,-1,0,313.15126)" d="M 52.309377 137.5469 L 48.309377 137.5469 "/>
<path transform="matrix(1,0,0,-1,0,313.15126)" stroke-width=".8" stroke-linecap="butt" stroke-linejoin="round" fill="none" stroke="#000000" d="M 52.309377 137.5469 L 48.309377 137.5469 "/>
<text xml:space="preserve" transform="matrix(1 0 -0 1 25.715626 181.29965)" font-size="15" font-family="DejaVuSans"><tspan y="0" x="0 9.540001">73</tspan></text>
<clipPath id="cp10">
<path transform="matrix(1,0,0,-1,0,313.15126)" d="M 52.309377 47.73125 L 407.54939 47.73125 L 407.54939 305.95127 L 52.309377 305.95127 Z "/>
</clipPath>
<g clip-path="url(#cp10)">
<path transform="matrix(1,0,0,-1,0,313.15126)" stroke-width=".5" stroke-linecap="square" stroke-linejoin="round" fill="none" stroke="#000000" stroke-opacity=".1" d="M 52.309377 182.45473 L 407.54939 182.45473 "/>
</g>
<path transform="matrix(1,0,0,-1,0,313.15126)" d="M 52.309377 182.45473 L 48.309377 182.45473 "/>
<path transform="matrix(1,0,0,-1,0,313.15126)" stroke-width=".8" stroke-linecap="butt" stroke-linejoin="round" fill="none" stroke="#000000" d="M 52.309377 182.45473 L 48.309377 182.45473 "/>
<text xml:space="preserve" transform="matrix(1 0 -0 1 25.715626 136.39183)" font-size="15" font-family="DejaVuSans"><tspan y="0" x="0 9.540001">77</tspan></text>
<clipPath id="cp11">
<path transform="matrix(1,0,0,-1,0,313.15126)" d="M 52.309377 47.73125 L 407.54939 47.73125 L 407.54939 305.95127 L 52.309377 305.95127 Z "/>
</clipPath>
<g clip-path="url(#cp11)">
<path transform="matrix(1,0,0,-1,0,313.15126)" stroke-width=".5" stroke-linecap="square" stroke-linejoin="round" fill="none" stroke="#000000" stroke-opacity=".1" d="M 52.309377 227.36255 L 407.54939 227.36255 "/>
</g>
<path transform="matrix(1,0,0,-1,0,313.15126)" d="M 52.309377 227.36255 L 48.309377 227.36255 "/>
<path transform="matrix(1,0,0,-1,0,313.15126)" stroke-width=".8" stroke-linecap="butt" stroke-linejoin="round" fill="none" stroke="#000000" d="M 52.309377 227.36255 L 48.309377 227.36255 "/>
<text xml:space="preserve" transform="matrix(1 0 -0 1 25.715626 91.48401)" font-size="15" font-family="DejaVuSans"><tspan y="0" x="0 9.540001">81</tspan></text>
<clipPath id="cp12">
<path transform="matrix(1,0,0,-1,0,313.15126)" d="M 52.309377 47.73125 L 407.54939 47.73125 L 407.54939 305.95127 L 52.309377 305.95127 Z "/>
</clipPath>
<g clip-path="url(#cp12)">
<path transform="matrix(1,0,0,-1,0,313.15126)" stroke-width=".5" stroke-linecap="square" stroke-linejoin="round" fill="none" stroke="#000000" stroke-opacity=".1" d="M 52.309377 272.2704 L 407.54939 272.2704 "/>
</g>
<path transform="matrix(1,0,0,-1,0,313.15126)" d="M 52.309377 272.2704 L 48.309377 272.2704 "/>
<path transform="matrix(1,0,0,-1,0,313.15126)" stroke-width=".8" stroke-linecap="butt" stroke-linejoin="round" fill="none" stroke="#000000" d="M 52.309377 272.2704 L 48.309377 272.2704 "/>
<text xml:space="preserve" transform="matrix(1 0 -0 1 25.715626 46.57617)" font-size="15" font-family="DejaVuSans"><tspan y="0" x="0 9.540001">85</tspan></text>
<text xml:space="preserve" transform="matrix(0 -1 1 0 18.590626 164.935)" font-size="15" font-family="DejaVuSans"><tspan y="0" x="0 10.01 18.26 26.51 31.28 37.13 51.38">Acc (%)</tspan></text>
<clipPath id="cp13">
<path transform="matrix(1,0,0,-1,0,313.15126)" d="M 52.309377 47.73125 L 407.54939 47.73125 L 407.54939 305.95127 L 52.309377 305.95127 Z "/>
</clipPath>
<g clip-path="url(#cp13)">
<path transform="matrix(1,0,0,-1,0,313.15126)" stroke-width="2" stroke-linecap="butt" stroke-dasharray="7.4,3.2" stroke-linejoin="round" fill="none" stroke="#f08080" d="M -1 283.2728 L 415.7494 283.2728 "/>
</g>
<clipPath id="cp14">
<path transform="matrix(1,0,0,-1,0,313.15126)" d="M 52.309377 47.73125 L 407.54939 47.73125 L 407.54939 305.95127 L 52.309377 305.95127 Z "/>
</clipPath>
<g clip-path="url(#cp14)">
<path transform="matrix(1,0,0,-1,0,313.15126)" stroke-width="2" stroke-linecap="square" stroke-linejoin="round" fill="none" stroke="#f08080" d="M 109.60615 164.04253 L 224.19969 141.81314 L 338.79325 90.16914 "/>
<clipPath id="cp15">
<path transform="matrix(1,0,0,-1,109.60615,149.10872)" d="M -9.949747 -9.949747 L 9.949747 -9.949747 L 9.949747 9.949747 L -9.949747 9.949747 Z "/>
</clipPath>
<g clip-path="url(#cp15)">
<path transform="matrix(1,0,0,-1,109.60615,149.10872)" d="M 0 -4.949747 L 4.949747 0 L 0 4.949747 L -4.949747 0 Z " fill="#f08080"/>
<path transform="matrix(1,0,0,-1,109.60615,149.10872)" stroke-width="1" stroke-linecap="butt" stroke-miterlimit="10" stroke-linejoin="miter" fill="none" stroke="#f08080" d="M 0 -4.949747 L 4.949747 0 L 0 4.949747 L -4.949747 0 Z "/>
</g>
<clipPath id="cp16">
<path transform="matrix(1,0,0,-1,224.1997,171.33809)" d="M -9.949747 -9.949747 L 9.949747 -9.949747 L 9.949747 9.949747 L -9.949747 9.949747 Z "/>
</clipPath>
<g clip-path="url(#cp16)">
<path transform="matrix(1,0,0,-1,224.1997,171.33809)" d="M 0 -4.949747 L 4.949747 0 L 0 4.949747 L -4.949747 0 Z " fill="#f08080"/>
<path transform="matrix(1,0,0,-1,224.1997,171.33809)" stroke-width="1" stroke-linecap="butt" stroke-miterlimit="10" stroke-linejoin="miter" fill="none" stroke="#f08080" d="M 0 -4.949747 L 4.949747 0 L 0 4.949747 L -4.949747 0 Z "/>
</g>
<clipPath id="cp17">
<path transform="matrix(1,0,0,-1,338.79328,222.98209)" d="M -9.949747 -9.949747 L 9.949747 -9.949747 L 9.949747 9.949747 L -9.949747 9.949747 Z "/>
</clipPath>
<g clip-path="url(#cp17)">
<path transform="matrix(1,0,0,-1,338.79328,222.98209)" d="M 0 -4.949747 L 4.949747 0 L 0 4.949747 L -4.949747 0 Z " fill="#f08080"/>
<path transform="matrix(1,0,0,-1,338.79328,222.98209)" stroke-width="1" stroke-linecap="butt" stroke-miterlimit="10" stroke-linejoin="miter" fill="none" stroke="#f08080" d="M 0 -4.949747 L 4.949747 0 L 0 4.949747 L -4.949747 0 Z "/>
</g>
</g>
<clipPath id="cp18">
<path transform="matrix(1,0,0,-1,0,313.15126)" d="M 52.309377 47.73125 L 407.54939 47.73125 L 407.54939 305.95127 L 52.309377 305.95127 Z "/>
</clipPath>
<g clip-path="url(#cp18)">
<path transform="matrix(1,0,0,-1,0,313.15126)" stroke-width="2" stroke-linecap="square" stroke-linejoin="round" fill="none" stroke="#d8bfd8" d="M 329.0528 169.65599 L 384.0577 168.5333 L 389.78739 161.1235 "/>
<clipPath id="cp19">
<path transform="matrix(1,0,0,-1,329.0528,143.49526)" d="M -8.5 -8.5 L 8.5 -8.5 L 8.5 8.5 L -8.5 8.5 Z "/>
</clipPath>
<g clip-path="url(#cp19)">
<path transform="matrix(1,0,0,-1,329.0528,143.49526)" d="M 0 -3.5 C .928211 -3.5 1.81853 -3.131218 2.474874 -2.474874 C 3.131218 -1.81853 3.5 -.928211 3.5 0 C 3.5 .928211 3.131218 1.81853 2.474874 2.474874 C 1.81853 3.131218 .928211 3.5 0 3.5 C -.928211 3.5 -1.81853 3.131218 -2.474874 2.474874 C -3.131218 1.81853 -3.5 .928211 -3.5 0 C -3.5 -.928211 -3.131218 -1.81853 -2.474874 -2.474874 C -1.81853 -3.131218 -.928211 -3.5 0 -3.5 Z " fill="#d8bfd8"/>
<path transform="matrix(1,0,0,-1,329.0528,143.49526)" stroke-width="1" stroke-linecap="butt" stroke-linejoin="round" fill="none" stroke="#d8bfd8" d="M 0 -3.5 C .928211 -3.5 1.81853 -3.131218 2.474874 -2.474874 C 3.131218 -1.81853 3.5 -.928211 3.5 0 C 3.5 .928211 3.131218 1.81853 2.474874 2.474874 C 1.81853 3.131218 .928211 3.5 0 3.5 C -.928211 3.5 -1.81853 3.131218 -2.474874 2.474874 C -3.131218 1.81853 -3.5 .928211 -3.5 0 C -3.5 -.928211 -3.131218 -1.81853 -2.474874 -2.474874 C -1.81853 -3.131218 -.928211 -3.5 0 -3.5 Z "/>
</g>
<clipPath id="cp20">
<path transform="matrix(1,0,0,-1,384.0577,144.61795)" d="M -8.5 -8.5 L 8.5 -8.5 L 8.5 8.5 L -8.5 8.5 Z "/>
</clipPath>
<g clip-path="url(#cp20)">
<path transform="matrix(1,0,0,-1,384.0577,144.61795)" d="M 0 -3.5 C .928211 -3.5 1.81853 -3.131218 2.474874 -2.474874 C 3.131218 -1.81853 3.5 -.928211 3.5 0 C 3.5 .928211 3.131218 1.81853 2.474874 2.474874 C 1.81853 3.131218 .928211 3.5 0 3.5 C -.928211 3.5 -1.81853 3.131218 -2.474874 2.474874 C -3.131218 1.81853 -3.5 .928211 -3.5 0 C -3.5 -.928211 -3.131218 -1.81853 -2.474874 -2.474874 C -1.81853 -3.131218 -.928211 -3.5 0 -3.5 Z " fill="#d8bfd8"/>
<path transform="matrix(1,0,0,-1,384.0577,144.61795)" stroke-width="1" stroke-linecap="butt" stroke-linejoin="round" fill="none" stroke="#d8bfd8" d="M 0 -3.5 C .928211 -3.5 1.81853 -3.131218 2.474874 -2.474874 C 3.131218 -1.81853 3.5 -.928211 3.5 0 C 3.5 .928211 3.131218 1.81853 2.474874 2.474874 C 1.81853 3.131218 .928211 3.5 0 3.5 C -.928211 3.5 -1.81853 3.131218 -2.474874 2.474874 C -3.131218 1.81853 -3.5 .928211 -3.5 0 C -3.5 -.928211 -3.131218 -1.81853 -2.474874 -2.474874 C -1.81853 -3.131218 -.928211 -3.5 0 -3.5 Z "/>
</g>
<clipPath id="cp21">
<path transform="matrix(1,0,0,-1,389.78739,152.02774)" d="M -8.5 -8.5 L 8.5 -8.5 L 8.5 8.5 L -8.5 8.5 Z "/>
</clipPath>
<g clip-path="url(#cp21)">
<path transform="matrix(1,0,0,-1,389.78739,152.02774)" d="M 0 -3.5 C .928211 -3.5 1.81853 -3.131218 2.474874 -2.474874 C 3.131218 -1.81853 3.5 -.928211 3.5 0 C 3.5 .928211 3.131218 1.81853 2.474874 2.474874 C 1.81853 3.131218 .928211 3.5 0 3.5 C -.928211 3.5 -1.81853 3.131218 -2.474874 2.474874 C -3.131218 1.81853 -3.5 .928211 -3.5 0 C -3.5 -.928211 -3.131218 -1.81853 -2.474874 -2.474874 C -1.81853 -3.131218 -.928211 -3.5 0 -3.5 Z " fill="#d8bfd8"/>
<path transform="matrix(1,0,0,-1,389.78739,152.02774)" stroke-width="1" stroke-linecap="butt" stroke-linejoin="round" fill="none" stroke="#d8bfd8" d="M 0 -3.5 C .928211 -3.5 1.81853 -3.131218 2.474874 -2.474874 C 3.131218 -1.81853 3.5 -.928211 3.5 0 C 3.5 .928211 3.131218 1.81853 2.474874 2.474874 C 1.81853 3.131218 .928211 3.5 0 3.5 C -.928211 3.5 -1.81853 3.131218 -2.474874 2.474874 C -3.131218 1.81853 -3.5 .928211 -3.5 0 C -3.5 -.928211 -3.131218 -1.81853 -2.474874 -2.474874 C -1.81853 -3.131218 -.928211 -3.5 0 -3.5 Z "/>
</g>
</g>
<path transform="matrix(1,0,0,-1,0,313.15126)" stroke-width=".5" stroke-linecap="square" stroke-miterlimit="10" stroke-linejoin="miter" fill="none" stroke="#000000" d="M 52.309377 47.73125 L 52.309377 305.95127 "/>
<path transform="matrix(1,0,0,-1,0,313.15126)" stroke-width=".5" stroke-linecap="square" stroke-miterlimit="10" stroke-linejoin="miter" fill="none" stroke="#000000" d="M 407.54939 47.73125 L 407.54939 305.95127 "/>
<path transform="matrix(1,0,0,-1,0,313.15126)" stroke-width=".5" stroke-linecap="square" stroke-miterlimit="10" stroke-linejoin="miter" fill="none" stroke="#000000" d="M 52.309377 47.73125 L 407.54939 47.73125 "/>
<path transform="matrix(1,0,0,-1,0,313.15126)" stroke-width=".5" stroke-linecap="square" stroke-miterlimit="10" stroke-linejoin="miter" fill="none" stroke="#000000" d="M 52.309377 305.95127 L 407.54939 305.95127 "/>
<g>
<path transform="matrix(1,0,0,-1,0,313.15126)" d="M 59.309377 52.73125 L 155.40312 52.73125 C 156.73647 52.73125 157.40312 53.39792 157.40312 54.73125 L 157.40312 98.59062 C 157.40312 99.92396 156.73647 100.59062 155.40312 100.59062 L 59.309377 100.59062 C 57.976045 100.59062 57.309377 99.92396 57.309377 98.59062 L 57.309377 54.73125 C 57.309377 53.39792 57.976045 52.73125 59.309377 52.73125 Z " fill="#ffffff" fill-opacity=".8"/>
<path transform="matrix(1,0,0,-1,0,313.15126)" stroke-width="1" stroke-linecap="butt" stroke-miterlimit="10" stroke-linejoin="miter" fill="none" stroke="#d5d6d5" stroke-opacity=".8" d="M 59.309377 52.73125 L 155.40312 52.73125 C 156.73647 52.73125 157.40312 53.39792 157.40312 54.73125 L 157.40312 98.59062 C 157.40312 99.92396 156.73647 100.59062 155.40312 100.59062 L 59.309377 100.59062 C 57.976045 100.59062 57.309377 99.92396 57.309377 98.59062 L 57.309377 54.73125 C 57.309377 53.39792 57.976045 52.73125 59.309377 52.73125 Z "/>
</g>
<path transform="matrix(1,0,0,-1,0,313.15126)" stroke-width="2" stroke-linecap="butt" stroke-dasharray="7.4,3.2" stroke-linejoin="round" fill="none" stroke="#f08080" d="M 61.309377 92.49687 L 81.30937 92.49687 "/>
<text xml:space="preserve" transform="matrix(1 0 -0 1 89.30937 224.15438)" font-size="10" font-family="DejaVuSans"><tspan y="0" x="0 7.7000005 13.85 20.19 25.400002 31.550002 36.550004 42.910005">Dense_50</tspan></text>
<path transform="matrix(1,0,0,-1,0,313.15126)" stroke-width="2" stroke-linecap="square" stroke-linejoin="round" fill="none" stroke="#f08080" d="M 61.309377 77.54375 L 81.30937 77.54375 "/>
<path transform="matrix(1,0,0,-1,0,313.15126)" d="M 71.30937 72.594 L 76.259128 77.54375 L 71.30937 82.4935 L 66.35963 77.54375 Z " fill="#f08080"/>
<path transform="matrix(1,0,0,-1,0,313.15126)" stroke-width="1" stroke-linecap="butt" stroke-miterlimit="10" stroke-linejoin="miter" fill="none" stroke="#f08080" d="M 71.30937 72.594 L 76.259128 77.54375 L 71.30937 82.4935 L 66.35963 77.54375 Z "/>
<text xml:space="preserve" transform="matrix(1 0 -0 1 89.30937 239.1075)" font-size="10" font-family="DejaVuSans"><tspan y="0" x="0 8.63 11.41 17.75 20.53 30.27 36.61 46.350004 51.350004 57.710004">Minimum_50</tspan></text>
<path transform="matrix(1,0,0,-1,0,313.15126)" stroke-width="2" stroke-linecap="square" stroke-linejoin="round" fill="none" stroke="#d8bfd8" d="M 61.309377 62.590627 L 81.30937 62.590627 "/>
<path transform="matrix(1,0,0,-1,0,313.15126)" d="M 71.30937 59.090627 C 72.23759 59.090627 73.12791 59.459409 73.78425 60.11575 C 74.44059 60.772096 74.80937 61.662416 74.80937 62.590627 C 74.80937 63.518838 74.44059 64.40916 73.78425 65.0655 C 73.12791 65.72184 72.23759 66.09062 71.30937 66.09062 C 70.381168 66.09062 69.490848 65.72184 68.8345 65.0655 C 68.178157 64.40916 67.80937 63.518838 67.80937 62.590627 C 67.80937 61.662416 68.178157 60.772096 68.8345 60.11575 C 69.490848 59.459409 70.381168 59.090627 71.30937 59.090627 Z " fill="#d8bfd8"/>
<path transform="matrix(1,0,0,-1,0,313.15126)" stroke-width="1" stroke-linecap="butt" stroke-linejoin="round" fill="none" stroke="#d8bfd8" d="M 71.30937 59.090627 C 72.23759 59.090627 73.12791 59.459409 73.78425 60.11575 C 74.44059 60.772096 74.80937 61.662416 74.80937 62.590627 C 74.80937 63.518838 74.44059 64.40916 73.78425 65.0655 C 73.12791 65.72184 72.23759 66.09062 71.30937 66.09062 C 70.381168 66.09062 69.490848 65.72184 68.8345 65.0655 C 68.178157 64.40916 67.80937 63.518838 67.80937 62.590627 C 67.80937 61.662416 68.178157 60.772096 68.8345 60.11575 C 69.490848 59.459409 70.381168 59.090627 71.30937 59.090627 Z "/>
<text xml:space="preserve" transform="matrix(1 0 -0 1 89.30937 254.06063)" font-size="10" font-family="DejaVuSans"><tspan y="0" x="0 7.870001 14.210001 18.320002 23.530003 28.530003 34.890005">Ours_50</tspan></text>
</g>
</g>
</svg>
