<?xml version="1.0" encoding="UTF-8" standalone="no"?>
<!DOCTYPE svg PUBLIC "-//W3C//DTD SVG 1.1//EN" "http://www.w3.org/Graphics/SVG/1.1/DTD/svg11.dtd">
<svg xmlns="http://www.w3.org/2000/svg" xmlns:xlink="http://www.w3.org/1999/xlink" version="1.1" width="650.2211pt" height="300.7951pt" viewBox="0 0 650.2211 300.7951">
<g enable-background="new">
<clipPath id="cp0">
<path transform="matrix(1,0,0,-1,-152.4504,453.2541)" d="M 0 .00001206994 L 959.76 .00001206994 L 959.76 540 L 0 540 Z "/>
</clipPath>
<g clip-path="url(#cp0)">
<path transform="matrix(1,0,0,-1,-152.4504,453.2541)" d="M 0 540 L 959.76 540 L 959.76 .00001206994 L 0 .00001206994 Z " fill="#ffffff"/>
</g>
<clipPath id="cp1">
<path transform="matrix(1,0,0,-1,-152.4504,453.2541)" d="M 0 0 L 960 0 L 960 540 L 0 540 Z "/>
</clipPath>
<g clip-path="url(#cp1)">
<path transform="matrix(1,0,0,-1,-152.4504,453.2541)" d="M 0 540 L 960 540 L 960 .0000140816 L 0 .0000140816 Z " fill="#ffffff"/>
<path transform="matrix(1,0,0,-1,-152.4504,453.2541)" d="M 254.8883 399.3515 L 269.2883 399.3515 L 269.2883 384.9515 L 254.8883 384.9515 Z " fill="#ff0000" fill-opacity=".6"/>
<path transform="matrix(1,0,0,-1,-152.4504,453.2541)" d="M 254.8883 384.9515 L 269.2883 384.9515 L 269.2883 370.5515 L 254.8883 370.5515 Z " fill="#ffc000" fill-opacity=".702"/>
<path transform="matrix(1,0,0,-1,-152.4504,453.2541)" d="M 254.8883 413.7515 L 269.2883 413.7515 L 269.2883 399.3515 L 254.8883 399.3515 Z " fill="#ffc000" fill-opacity=".702"/>
<path transform="matrix(1,0,0,-1,-152.4504,453.2541)" d="M 254.8883 370.1417 L 269.2883 370.1417 L 269.2883 355.7417 L 254.8883 355.7417 Z " fill="#92d050" fill-opacity=".8"/>
<path transform="matrix(1,0,0,-1,-152.4504,453.2541)" d="M 227.3761 420.5417 L 241.7761 420.5417 L 241.7761 406.1417 L 227.3761 406.1417 Z " fill="#4472c4" fill-opacity=".702"/>
<path transform="matrix(1,0,0,-1,-152.4504,453.2541)" d="M 227.3761 406.1417 L 241.7761 406.1417 L 241.7761 391.7417 L 227.3761 391.7417 Z " fill="#ff0000" fill-opacity=".6"/>
<path transform="matrix(1,0,0,-1,-152.4504,453.2541)" d="M 227.3761 391.332 L 241.7761 391.332 L 241.7761 376.932 L 227.3761 376.932 Z " fill="#92d050" fill-opacity=".8"/>
<path transform="matrix(1,0,0,-1,-152.4504,453.2541)" d="M 227.3761 377.3417 L 241.7761 377.3417 L 241.7761 362.9417 L 227.3761 362.9417 Z " fill="#ffc000" fill-opacity=".702"/>
<path transform="matrix(1,0,0,-1,-152.4504,453.2541)" d="M 227.3761 362.9606 L 241.7761 362.9606 L 241.7761 348.5606 L 227.3761 348.5606 Z " fill="#ff0000" fill-opacity=".6"/>
<path transform="matrix(1,0,0,-1,-152.4504,453.2541)" d="M 188.2683 406.5515 L 202.6683 406.5515 L 202.6683 392.1515 L 188.2683 392.1515 Z " fill="#ff0000" fill-opacity=".6"/>
<path transform="matrix(1,0,0,-1,-152.4504,453.2541)" d="M 188.2683 392.1515 L 202.6683 392.1515 L 202.6683 377.7515 L 188.2683 377.7515 Z " fill="#ffc000" fill-opacity=".702"/>
<path transform="matrix(1,0,0,-1,-152.4504,453.2541)" d="M 188.2683 377.3417 L 202.6683 377.3417 L 202.6683 362.9417 L 188.2683 362.9417 Z " fill="#4472c4" fill-opacity=".702"/>
<path transform="matrix(1,0,0,-1,-152.4504,453.2541)" d="M 441.7183 399.3515 L 456.1183 399.3515 L 456.1183 384.9515 L 441.7183 384.9515 Z " fill="#4472c4" fill-opacity=".702"/>
<path transform="matrix(1,0,0,-1,-152.4504,453.2541)" d="M 441.7183 384.9515 L 456.1183 384.9515 L 456.1183 370.5515 L 441.7183 370.5515 Z " fill="#ff0000" fill-opacity=".6"/>
<path transform="matrix(.00007874016,0,0,.00007874016,69.593708,25.869599)" stroke-width="19050" stroke-linecap="butt" stroke-dasharray="76200,57150" stroke-miterlimit="8" stroke-linejoin="miter" fill="none" stroke="#000000" d="M 0 114041.7 C 0 51058.23 51058.29 0 114041.9 0 L 570197.1 0 C 633180.7 0 684239 51058.23 684239 114041.7 L 684239 1012053 C 684239 1075037 633180.7 1126095 570197.1 1126095 L 114041.9 1126095 C 51058.29 1126095 0 1075037 0 1012053 Z "/>
<path transform="matrix(1,0,0,-1,-152.4504,453.2541)" d="M 323.3203 399.3515 L 337.7203 399.3515 L 337.7203 384.9515 L 323.3203 384.9515 Z " fill="#4472c4" fill-opacity=".702"/>
<path transform="matrix(1,0,0,-1,-152.4504,453.2541)" d="M 323.3203 384.9515 L 337.7203 384.9515 L 337.7203 370.5515 L 323.3203 370.5515 Z " fill="#ffc000" fill-opacity=".702"/>
<path transform="matrix(1,0,0,-1,-152.4504,453.2541)" d="M 323.3203 413.7515 L 337.7203 413.7515 L 337.7203 399.3515 L 323.3203 399.3515 Z " fill="#ff0000" fill-opacity=".6"/>
<path transform="matrix(1,0,0,-1,-152.4504,453.2541)" d="M 323.3203 370.8084 L 337.7203 370.8084 L 337.7203 356.4084 L 323.3203 356.4084 Z " fill="#92d050" fill-opacity=".8"/>
<path transform="matrix(1,0,0,-1,-152.4504,453.2541)" d="M 295.8081 420.5417 L 310.2081 420.5417 L 310.2081 406.1417 L 295.8081 406.1417 Z " fill="#ff0000" fill-opacity=".6"/>
<path transform="matrix(1,0,0,-1,-152.4504,453.2541)" d="M 295.8081 406.1417 L 310.2081 406.1417 L 310.2081 391.7417 L 295.8081 391.7417 Z " fill="#ffc000" fill-opacity=".702"/>
<path transform="matrix(1,0,0,-1,-152.4504,453.2541)" d="M 295.8081 391.332 L 310.2081 391.332 L 310.2081 376.932 L 295.8081 376.932 Z " fill="#4472c4" fill-opacity=".702"/>
<path transform="matrix(1,0,0,-1,-152.4504,453.2541)" d="M 295.8081 376.9131 L 310.2081 376.9131 L 310.2081 362.5131 L 295.8081 362.5131 Z " fill="#ff0000" fill-opacity=".6"/>
<path transform="matrix(1,0,0,-1,-152.4504,453.2541)" d="M 295.8081 362.532 L 310.2081 362.532 L 310.2081 348.132 L 295.8081 348.132 Z " fill="#92d050" fill-opacity=".8"/>
<path transform="matrix(.00007874016,0,0,.00007874016,138.02571,25.869599)" stroke-width="19050" stroke-linecap="butt" stroke-dasharray="76200,57150" stroke-miterlimit="8" stroke-linejoin="miter" fill="none" stroke="#000000" d="M 0 114041.7 C 0 51058.23 51058.29 0 114041.9 0 L 570197.1 0 C 633180.7 0 684239 51058.23 684239 114041.7 L 684239 1012053 C 684239 1075037 633180.7 1126095 570197.1 1126095 L 114041.9 1126095 C 51058.29 1126095 0 1075037 0 1012053 Z "/>
<path transform="matrix(1,0,0,-1,-152.4504,453.2541)" d="M 402.7568 399.3515 L 417.1568 399.3515 L 417.1568 384.9515 L 402.7568 384.9515 Z " fill="#ff0000" fill-opacity=".6"/>
<path transform="matrix(1,0,0,-1,-152.4504,453.2541)" d="M 402.7568 384.9515 L 417.1568 384.9515 L 417.1568 370.5515 L 402.7568 370.5515 Z " fill="#4472c4" fill-opacity=".702"/>
<path transform="matrix(1,0,0,-1,-152.4504,453.2541)" d="M 402.7568 413.7515 L 417.1568 413.7515 L 417.1568 399.3515 L 402.7568 399.3515 Z " fill="#ffc000" fill-opacity=".702"/>
<path transform="matrix(1,0,0,-1,-152.4504,453.2541)" d="M 402.7568 370.8084 L 417.1568 370.8084 L 417.1568 356.4084 L 402.7568 356.4084 Z " fill="#92d050" fill-opacity=".8"/>
<path transform="matrix(1,0,0,-1,-152.4504,453.2541)" d="M 375.2446 420.5417 L 389.6446 420.5417 L 389.6446 406.1417 L 375.2446 406.1417 Z " fill="#ff0000" fill-opacity=".6"/>
<path transform="matrix(1,0,0,-1,-152.4504,453.2541)" d="M 375.2446 405.7131 L 389.6446 405.7131 L 389.6446 391.3131 L 375.2446 391.3131 Z " fill="#4472c4" fill-opacity=".702"/>
<path transform="matrix(1,0,0,-1,-152.4504,453.2541)" d="M 375.2446 391.332 L 389.6446 391.332 L 389.6446 376.932 L 375.2446 376.932 Z " fill="#92d050" fill-opacity=".8"/>
<path transform="matrix(1,0,0,-1,-152.4504,453.2541)" d="M 375.2446 377.3417 L 389.6446 377.3417 L 389.6446 362.9417 L 375.2446 362.9417 Z " fill="#ffc000" fill-opacity=".702"/>
<path transform="matrix(1,0,0,-1,-152.4504,453.2541)" d="M 375.2446 362.532 L 389.6446 362.532 L 389.6446 348.132 L 375.2446 348.132 Z " fill="#ff0000" fill-opacity=".6"/>
<path transform="matrix(.00007874016,0,0,.00007874016,217.4623,25.869599)" stroke-width="19050" stroke-linecap="butt" stroke-dasharray="76200,57150" stroke-miterlimit="8" stroke-linejoin="miter" fill="none" stroke="#000000" d="M 0 114041.7 C 0 51058.23 51058.29 0 114041.9 0 L 570197.1 0 C 633180.7 0 684239 51058.23 684239 114041.7 L 684239 1012053 C 684239 1075037 633180.7 1126095 570197.1 1126095 L 114041.9 1126095 C 51058.29 1126095 0 1075037 0 1012053 Z "/>
<text xml:space="preserve" transform="matrix(.24 0 -0 .24 196.60042 608.0541)" font-size="75" font-family="Calibri"><tspan y="-2250" x="0">&#x2026;</tspan></text>
<path transform="matrix(1,0,0,-1,-152.4504,453.2541)" d="M 204.2924 385.7015 L 213.6924 385.7014 L 213.6924 384.2014 L 204.2924 384.2015 Z M 212.6924 387.9514 L 218.6924 384.9514 L 212.6923 381.9514 Z "/>
<path transform="matrix(1,0,0,-1,-152.4504,453.2541)" d="M 276.0761 386.3703 L 285.4761 386.3703 L 285.4761 384.8703 L 276.0761 384.8703 Z M 284.4762 388.6203 L 290.4761 385.6202 L 284.4761 382.6203 Z "/>
<path transform="matrix(1,0,0,-1,-152.4504,453.2541)" d="M 425.4138 386.3703 L 434.8138 386.3703 L 434.8138 384.8703 L 425.4138 384.8703 Z M 433.8138 388.6203 L 439.8138 385.6202 L 433.8137 382.6203 Z "/>
<path transform="matrix(.00007874016,0,0,.00007874016,69.59361,174.8772)" stroke-width="19050" stroke-linecap="butt" stroke-dasharray="76200,57150" stroke-miterlimit="8" stroke-linejoin="miter" fill="none" stroke="#000000" d="M 0 114041.7 C 0 51058.23 51058.29 0 114041.9 0 L 570197.1 0 C 633180.7 0 684239 51058.23 684239 114041.7 L 684239 1012053 C 684239 1075037 633180.7 1126095 570197.1 1126095 L 114041.9 1126095 C 51058.29 1126095 0 1075037 0 1012053 Z "/>
<path transform="matrix(.00007874016,0,0,.00007874016,138.02562,174.8772)" stroke-width="19050" stroke-linecap="butt" stroke-dasharray="76200,57150" stroke-miterlimit="8" stroke-linejoin="miter" fill="none" stroke="#000000" d="M 0 114041.7 C 0 51058.23 51058.29 0 114041.9 0 L 570197.1 0 C 633180.7 0 684239 51058.23 684239 114041.7 L 684239 1012053 C 684239 1075037 633180.7 1126095 570197.1 1126095 L 114041.9 1126095 C 51058.29 1126095 0 1075037 0 1012053 Z "/>
<path transform="matrix(.00007874016,0,0,.00007874016,217.4622,174.8772)" stroke-width="19050" stroke-linecap="butt" stroke-dasharray="76200,57150" stroke-miterlimit="8" stroke-linejoin="miter" fill="none" stroke="#000000" d="M 0 114041.7 C 0 51058.23 51058.29 0 114041.9 0 L 570197.1 0 C 633180.7 0 684239 51058.23 684239 114041.7 L 684239 1012053 C 684239 1075037 633180.7 1126095 570197.1 1126095 L 114041.9 1126095 C 51058.29 1126095 0 1075037 0 1012053 Z "/>
<text xml:space="preserve" transform="matrix(.24 0 -0 .24 196.6003 757.0941)" font-size="75" font-family="Calibri"><tspan y="-2250" x="0">&#x2026;</tspan></text>
<path transform="matrix(1,0,0,-1,-152.4504,453.2541)" d="M 204.2923 236.6939 L 213.6923 236.6939 L 213.6923 235.1939 L 204.2923 235.1939 Z M 212.6923 238.9439 L 218.6923 235.9439 L 212.6923 232.9439 Z "/>
<path transform="matrix(1,0,0,-1,-152.4504,453.2541)" d="M 276.0761 237.3628 L 285.4761 237.3627 L 285.476 235.8627 L 276.076 235.8628 Z M 284.4761 239.6127 L 290.476 236.6127 L 284.476 233.6127 Z "/>
<path transform="matrix(1,0,0,-1,-152.4504,453.2541)" d="M 425.4137 237.3628 L 434.8137 237.3627 L 434.8137 235.8627 L 425.4137 235.8628 Z M 433.8137 239.6127 L 439.8137 236.6127 L 433.8137 233.6127 Z "/>
<path transform="matrix(1,0,0,-1,-152.4504,453.2541)" d="M 575.0173 250.3439 L 589.4173 250.3439 L 589.4173 235.9439 L 575.0173 235.9439 Z " fill="#ffc000" fill-opacity=".702"/>
<path transform="matrix(1,0,0,-1,-152.4504,453.2541)" d="M 575.0173 235.9439 L 589.4173 235.9439 L 589.4173 221.5439 L 575.0173 221.5439 Z " fill="#ff0000" fill-opacity=".6"/>
<path transform="matrix(1,0,0,-1,-152.4504,453.2541)" d="M 575.0173 264.7439 L 589.4173 264.7439 L 589.4173 250.3439 L 575.0173 250.3439 Z " fill="#ff0000" fill-opacity=".6"/>
<path transform="matrix(1,0,0,-1,-152.4504,453.2541)" d="M 575.0173 221.1342 L 589.4173 221.1342 L 589.4173 206.7342 L 575.0173 206.7342 Z " fill="#ffc000" fill-opacity=".702"/>
<path transform="matrix(1,0,0,-1,-152.4504,453.2541)" d="M 547.5051 271.5342 L 561.9051 271.5342 L 561.9051 257.1342 L 547.5051 257.1342 Z " fill="#ff0000" fill-opacity=".6"/>
<path transform="matrix(1,0,0,-1,-152.4504,453.2541)" d="M 547.5051 257.1342 L 561.9051 257.1342 L 561.9051 242.7342 L 547.5051 242.7342 Z " fill="#ffc000" fill-opacity=".702"/>
<path transform="matrix(1,0,0,-1,-152.4504,453.2541)" d="M 547.5051 242.3244 L 561.9051 242.3244 L 561.9051 227.9244 L 547.5051 227.9244 Z " fill="#ff0000" fill-opacity=".6"/>
<path transform="matrix(1,0,0,-1,-152.4504,453.2541)" d="M 547.5051 228.3342 L 561.9051 228.3342 L 561.9051 213.9342 L 547.5051 213.9342 Z " fill="#ffc000" fill-opacity=".702"/>
<path transform="matrix(1,0,0,-1,-152.4504,453.2541)" d="M 547.5051 213.5244 L 561.9051 213.5244 L 561.9051 199.1244 L 547.5051 199.1244 Z " fill="#ff0000" fill-opacity=".6"/>
<path transform="matrix(1,0,0,-1,-152.4504,453.2541)" d="M 761.8474 250.3439 L 776.2474 250.3439 L 776.2474 235.9439 L 761.8474 235.9439 Z " fill="#ff0000" fill-opacity=".6"/>
<path transform="matrix(1,0,0,-1,-152.4504,453.2541)" d="M 761.8474 235.9439 L 776.2474 235.9439 L 776.2474 221.5439 L 761.8474 221.5439 Z " fill="#ffc000" fill-opacity=".702"/>
<path transform="matrix(.00007874016,0,0,.00007874016,389.72273,174.8772)" stroke-width="19050" stroke-linecap="butt" stroke-dasharray="76200,57150" stroke-miterlimit="8" stroke-linejoin="miter" fill="none" stroke="#000000" d="M 0 114041.7 C 0 51058.23 51058.29 0 114041.9 0 L 570197.1 0 C 633180.7 0 684239 51058.23 684239 114041.7 L 684239 1012053 C 684239 1075037 633180.7 1126095 570197.1 1126095 L 114041.9 1126095 C 51058.29 1126095 0 1075037 0 1012053 Z "/>
<path transform="matrix(1,0,0,-1,-152.4504,453.2541)" d="M 643.4494 250.3439 L 657.8494 250.3439 L 657.8494 235.9439 L 643.4494 235.9439 Z " fill="#ffc000" fill-opacity=".702"/>
<path transform="matrix(1,0,0,-1,-152.4504,453.2541)" d="M 643.4494 235.9439 L 657.8494 235.9439 L 657.8494 221.5439 L 643.4494 221.5439 Z " fill="#ff0000" fill-opacity=".6"/>
<path transform="matrix(1,0,0,-1,-152.4504,453.2541)" d="M 643.4494 264.7439 L 657.8494 264.7439 L 657.8494 250.3439 L 643.4494 250.3439 Z " fill="#ff0000" fill-opacity=".6"/>
<path transform="matrix(1,0,0,-1,-152.4504,453.2541)" d="M 643.4494 221.1342 L 657.8494 221.1342 L 657.8494 206.7342 L 643.4494 206.7342 Z " fill="#ffc000" fill-opacity=".702"/>
<path transform="matrix(1,0,0,-1,-152.4504,453.2541)" d="M 615.9371 271.5342 L 630.3371 271.5342 L 630.3371 257.1342 L 615.9371 257.1342 Z " fill="#ff0000" fill-opacity=".6"/>
<path transform="matrix(1,0,0,-1,-152.4504,453.2541)" d="M 615.9371 257.1342 L 630.3371 257.1342 L 630.3371 242.7342 L 615.9371 242.7342 Z " fill="#ffc000" fill-opacity=".702"/>
<path transform="matrix(1,0,0,-1,-152.4504,453.2541)" d="M 615.9371 242.3244 L 630.3371 242.3244 L 630.3371 227.9244 L 615.9371 227.9244 Z " fill="#ff0000" fill-opacity=".6"/>
<path transform="matrix(1,0,0,-1,-152.4504,453.2541)" d="M 615.9371 228.3342 L 630.3371 228.3342 L 630.3371 213.9342 L 615.9371 213.9342 Z " fill="#ffc000" fill-opacity=".702"/>
<path transform="matrix(1,0,0,-1,-152.4504,453.2541)" d="M 615.9371 213.5244 L 630.3371 213.5244 L 630.3371 199.1244 L 615.9371 199.1244 Z " fill="#ff0000" fill-opacity=".6"/>
<path transform="matrix(.00007874016,0,0,.00007874016,458.15486,174.8772)" stroke-width="19050" stroke-linecap="butt" stroke-dasharray="76200,57150" stroke-miterlimit="8" stroke-linejoin="miter" fill="none" stroke="#000000" d="M 0 114041.7 C 0 51058.23 51058.29 0 114041.9 0 L 570197.1 0 C 633180.7 0 684239 51058.23 684239 114041.7 L 684239 1012053 C 684239 1075037 633180.7 1126095 570197.1 1126095 L 114041.9 1126095 C 51058.29 1126095 0 1075037 0 1012053 Z "/>
<path transform="matrix(1,0,0,-1,-152.4504,453.2541)" d="M 722.8859 250.3439 L 737.2859 250.3439 L 737.2859 235.9439 L 722.8859 235.9439 Z " fill="#ffc000" fill-opacity=".702"/>
<path transform="matrix(1,0,0,-1,-152.4504,453.2541)" d="M 722.8859 235.9439 L 737.2859 235.9439 L 737.2859 221.5439 L 722.8859 221.5439 Z " fill="#ff0000" fill-opacity=".6"/>
<path transform="matrix(1,0,0,-1,-152.4504,453.2541)" d="M 722.8859 264.7439 L 737.2859 264.7439 L 737.2859 250.3439 L 722.8859 250.3439 Z " fill="#ff0000" fill-opacity=".6"/>
<path transform="matrix(1,0,0,-1,-152.4504,453.2541)" d="M 722.8859 221.1342 L 737.2859 221.1342 L 737.2859 206.7342 L 722.8859 206.7342 Z " fill="#ffc000" fill-opacity=".702"/>
<path transform="matrix(1,0,0,-1,-152.4504,453.2541)" d="M 695.3737 271.5342 L 709.7737 271.5342 L 709.7737 257.1342 L 695.3737 257.1342 Z " fill="#ff0000" fill-opacity=".6"/>
<path transform="matrix(1,0,0,-1,-152.4504,453.2541)" d="M 695.3737 257.1342 L 709.7737 257.1342 L 709.7737 242.7342 L 695.3737 242.7342 Z " fill="#ffc000" fill-opacity=".702"/>
<path transform="matrix(1,0,0,-1,-152.4504,453.2541)" d="M 695.3737 242.3244 L 709.7737 242.3244 L 709.7737 227.9244 L 695.3737 227.9244 Z " fill="#ff0000" fill-opacity=".6"/>
<path transform="matrix(1,0,0,-1,-152.4504,453.2541)" d="M 695.3737 228.3342 L 709.7737 228.3342 L 709.7737 213.9342 L 695.3737 213.9342 Z " fill="#ffc000" fill-opacity=".702"/>
<path transform="matrix(1,0,0,-1,-152.4504,453.2541)" d="M 695.3737 213.5244 L 709.7737 213.5244 L 709.7737 199.1244 L 695.3737 199.1244 Z " fill="#ff0000" fill-opacity=".6"/>
<path transform="matrix(.00007874016,0,0,.00007874016,537.5913,174.8772)" stroke-width="19050" stroke-linecap="butt" stroke-dasharray="76200,57150" stroke-miterlimit="8" stroke-linejoin="miter" fill="none" stroke="#000000" d="M 0 114041.7 C 0 51058.23 51058.29 0 114041.9 0 L 570197.1 0 C 633180.7 0 684239 51058.23 684239 114041.7 L 684239 1012053 C 684239 1075037 633180.7 1126095 570197.1 1126095 L 114041.9 1126095 C 51058.29 1126095 0 1075037 0 1012053 Z "/>
<text xml:space="preserve" transform="matrix(.24 0 -0 .24 516.72946 757.0941)" font-size="75" font-family="Calibri"><tspan y="-2250" x="0">&#x2026;</tspan></text>
<path transform="matrix(1,0,0,-1,-152.4504,453.2541)" d="M 524.4214 236.6939 L 533.8214 236.6939 L 533.8214 235.1939 L 524.4214 235.1939 Z M 532.8214 238.9439 L 538.8214 235.9439 L 532.8214 232.9439 Z "/>
<path transform="matrix(1,0,0,-1,-152.4504,453.2541)" d="M 596.2052 237.3628 L 605.6052 237.3627 L 605.6052 235.8627 L 596.2052 235.8628 Z M 604.6052 239.6127 L 610.6052 236.6127 L 604.6051 233.6127 Z "/>
<path transform="matrix(1,0,0,-1,-152.4504,453.2541)" d="M 745.5428 237.3628 L 754.9428 237.3627 L 754.9428 235.8627 L 745.5428 235.8628 Z M 753.9428 239.6127 L 759.9428 236.6127 L 753.9428 233.6127 Z "/>
<text xml:space="preserve" transform="matrix(.24 0 -0 .24 36.5141 559.5741)" font-size="66.66666" font-family="TimesNewRomanPSMT"><tspan y="-2250" x="0 44.27333 73.96 107.29333 140.62665 159.37998 189.06665">Regular</tspan></text>
<text xml:space="preserve" transform="matrix(.24 0 -0 .24 358.43824 558.3741)" font-size="66.66666" font-family="TimesNewRomanPSMT"><tspan y="-2250" x="0 47.91333 81.24666">One</tspan></text>
<text xml:space="preserve" transform="matrix(.24 0 -0 .24 385.06324 558.3741)" font-size="66.66666" font-family="TimesNewRomanPSMT"><tspan y="-2250" x="0">-</tspan></text>
<text xml:space="preserve" transform="matrix(.24 0 -0 .24 390.43824 558.3741)" font-size="66.66666" font-family="TimesNewRomanPSMT"><tspan y="-2250" x="0 40.62666 70.313327 103.64665 133.33332">Layer</tspan></text>
<text xml:space="preserve" transform="matrix(.24 0 -0 .24 34.91591 707.41409)" font-size="66.66666" font-family="TimesNewRomanPSMT"><tspan y="-2250" x="0 59.37333 89.079998">Max</tspan></text>
<text xml:space="preserve" transform="matrix(.24 0 -0 .24 64.29091 707.41409)" font-size="66.66666" font-family="TimesNewRomanPSMT"><tspan y="-2250" x="0">-</tspan></text>
<text xml:space="preserve" transform="matrix(.24 0 -0 .24 69.66591 707.41409)" font-size="66.66666" font-family="TimesNewRomanPSMT"><tspan y="-2250" x="0 40.62666 70.313327 103.64665 133.33332 155.72664 172.39331 209.3733 239.05997 272.3933 305.72663 324.47996 357.8133">Layer Padding</tspan></text>
<path transform="matrix(1,0,0,-1,-152.4504,453.2541)" d="M 575.0173 399.3515 L 589.4173 399.3515 L 589.4173 384.9515 L 575.0173 384.9515 Z " fill="#ff0000" fill-opacity=".6"/>
<path transform="matrix(1,0,0,-1,-152.4504,453.2541)" d="M 575.0173 384.9515 L 589.4173 384.9515 L 589.4173 370.5515 L 575.0173 370.5515 Z " fill="#ffc000" fill-opacity=".702"/>
<path transform="matrix(1,0,0,-1,-152.4504,453.2541)" d="M 575.0173 413.7515 L 589.4173 413.7515 L 589.4173 399.3515 L 575.0173 399.3515 Z " fill="#92d050" fill-opacity=".8"/>
<path transform="matrix(1,0,0,-1,-152.4504,453.2541)" d="M 575.0173 370.1417 L 589.4173 370.1417 L 589.4173 355.7417 L 575.0173 355.7417 Z " fill="#92d050" fill-opacity=".8"/>
<path transform="matrix(1,0,0,-1,-152.4504,453.2541)" d="M 547.5051 420.5417 L 561.9051 420.5417 L 561.9051 406.1417 L 547.5051 406.1417 Z " fill="#4472c4" fill-opacity=".702"/>
<path transform="matrix(1,0,0,-1,-152.4504,453.2541)" d="M 547.5051 406.1417 L 561.9051 406.1417 L 561.9051 391.7417 L 547.5051 391.7417 Z " fill="#ff0000" fill-opacity=".6"/>
<path transform="matrix(1,0,0,-1,-152.4504,453.2541)" d="M 547.5051 391.332 L 561.9051 391.332 L 561.9051 376.932 L 547.5051 376.932 Z " fill="#92d050" fill-opacity=".8"/>
<path transform="matrix(1,0,0,-1,-152.4504,453.2541)" d="M 547.5051 377.3417 L 561.9051 377.3417 L 561.9051 362.9417 L 547.5051 362.9417 Z " fill="#ffc000" fill-opacity=".702"/>
<path transform="matrix(1,0,0,-1,-152.4504,453.2541)" d="M 547.5051 362.9606 L 561.9051 362.9606 L 561.9051 348.5606 L 547.5051 348.5606 Z " fill="#ff0000" fill-opacity=".6"/>
<path transform="matrix(1,0,0,-1,-152.4504,453.2541)" d="M 508.3974 406.5515 L 522.7974 406.5515 L 522.7974 392.1515 L 508.3974 392.1515 Z " fill="#ff0000" fill-opacity=".6"/>
<path transform="matrix(1,0,0,-1,-152.4504,453.2541)" d="M 508.3974 392.1515 L 522.7974 392.1515 L 522.7974 377.7515 L 508.3974 377.7515 Z " fill="#ffc000" fill-opacity=".702"/>
<path transform="matrix(1,0,0,-1,-152.4504,453.2541)" d="M 508.3974 377.3417 L 522.7974 377.3417 L 522.7974 362.9417 L 508.3974 362.9417 Z " fill="#4472c4" fill-opacity=".702"/>
<path transform="matrix(1,0,0,-1,-152.4504,453.2541)" d="M 761.8474 399.3515 L 776.2474 399.3515 L 776.2474 384.9515 L 761.8474 384.9515 Z " fill="#4472c4" fill-opacity=".702"/>
<path transform="matrix(1,0,0,-1,-152.4504,453.2541)" d="M 761.8474 384.9515 L 776.2474 384.9515 L 776.2474 370.5515 L 761.8474 370.5515 Z " fill="#ff0000" fill-opacity=".6"/>
<path transform="matrix(.00007874016,0,0,.00007874016,389.72273,25.869599)" stroke-width="19050" stroke-linecap="butt" stroke-dasharray="76200,57150" stroke-miterlimit="8" stroke-linejoin="miter" fill="none" stroke="#000000" d="M 0 114041.7 C 0 51058.23 51058.29 0 114041.9 0 L 570197.1 0 C 633180.7 0 684239 51058.23 684239 114041.7 L 684239 1012053 C 684239 1075037 633180.7 1126095 570197.1 1126095 L 114041.9 1126095 C 51058.29 1126095 0 1075037 0 1012053 Z "/>
<path transform="matrix(.00007874016,0,0,.00007874016,458.15486,25.869599)" stroke-width="19050" stroke-linecap="butt" stroke-dasharray="76200,57150" stroke-miterlimit="8" stroke-linejoin="miter" fill="none" stroke="#000000" d="M 0 114041.7 C 0 51058.23 51058.29 0 114041.9 0 L 570197.1 0 C 633180.7 0 684239 51058.23 684239 114041.7 L 684239 1012053 C 684239 1075037 633180.7 1126095 570197.1 1126095 L 114041.9 1126095 C 51058.29 1126095 0 1075037 0 1012053 Z "/>
<path transform="matrix(.00007874016,0,0,.00007874016,537.5913,25.869599)" stroke-width="19050" stroke-linecap="butt" stroke-dasharray="76200,57150" stroke-miterlimit="8" stroke-linejoin="miter" fill="none" stroke="#000000" d="M 0 114041.7 C 0 51058.23 51058.29 0 114041.9 0 L 570197.1 0 C 633180.7 0 684239 51058.23 684239 114041.7 L 684239 1012053 C 684239 1075037 633180.7 1126095 570197.1 1126095 L 114041.9 1126095 C 51058.29 1126095 0 1075037 0 1012053 Z "/>
<text xml:space="preserve" transform="matrix(.24 0 -0 .24 516.72946 608.0541)" font-size="75" font-family="Calibri"><tspan y="-2250" x="0">&#x2026;</tspan></text>
<path transform="matrix(1,0,0,-1,-152.4504,453.2541)" d="M 524.4214 385.7015 L 533.8214 385.7014 L 533.8214 384.2014 L 524.4214 384.2015 Z M 532.8214 387.9514 L 538.8214 384.9514 L 532.8214 381.9514 Z "/>
<path transform="matrix(1,0,0,-1,-152.4504,453.2541)" d="M 596.2052 386.3703 L 605.6052 386.3703 L 605.6052 384.8703 L 596.2052 384.8703 Z M 604.6052 388.6203 L 610.6052 385.6202 L 604.6051 382.6203 Z "/>
<path transform="matrix(1,0,0,-1,-152.4504,453.2541)" d="M 745.5428 386.3703 L 754.9428 386.3703 L 754.9428 384.8703 L 745.5428 384.8703 Z M 753.9428 388.6203 L 759.9428 385.6202 L 753.9428 382.6203 Z "/>
<path transform="matrix(1,0,0,-1,-152.4504,453.2541)" d="M 643.4494 399.3515 L 657.8494 399.3515 L 657.8494 384.9515 L 643.4494 384.9515 Z " fill="#ff0000" fill-opacity=".6"/>
<path transform="matrix(1,0,0,-1,-152.4504,453.2541)" d="M 643.4494 384.9515 L 657.8494 384.9515 L 657.8494 370.5515 L 643.4494 370.5515 Z " fill="#ffc000" fill-opacity=".702"/>
<path transform="matrix(1,0,0,-1,-152.4504,453.2541)" d="M 643.4494 413.7515 L 657.8494 413.7515 L 657.8494 399.3515 L 643.4494 399.3515 Z " fill="#92d050" fill-opacity=".8"/>
<path transform="matrix(1,0,0,-1,-152.4504,453.2541)" d="M 643.4494 370.1417 L 657.8494 370.1417 L 657.8494 355.7417 L 643.4494 355.7417 Z " fill="#92d050" fill-opacity=".8"/>
<path transform="matrix(1,0,0,-1,-152.4504,453.2541)" d="M 615.9371 420.5417 L 630.3371 420.5417 L 630.3371 406.1417 L 615.9371 406.1417 Z " fill="#4472c4" fill-opacity=".702"/>
<path transform="matrix(1,0,0,-1,-152.4504,453.2541)" d="M 615.9371 406.1417 L 630.3371 406.1417 L 630.3371 391.7417 L 615.9371 391.7417 Z " fill="#ff0000" fill-opacity=".6"/>
<path transform="matrix(1,0,0,-1,-152.4504,453.2541)" d="M 615.9371 391.332 L 630.3371 391.332 L 630.3371 376.932 L 615.9371 376.932 Z " fill="#92d050" fill-opacity=".8"/>
<path transform="matrix(1,0,0,-1,-152.4504,453.2541)" d="M 615.9371 377.3417 L 630.3371 377.3417 L 630.3371 362.9417 L 615.9371 362.9417 Z " fill="#ffc000" fill-opacity=".702"/>
<path transform="matrix(1,0,0,-1,-152.4504,453.2541)" d="M 615.9371 362.9606 L 630.3371 362.9606 L 630.3371 348.5606 L 615.9371 348.5606 Z " fill="#ff0000" fill-opacity=".6"/>
<path transform="matrix(1,0,0,-1,-152.4504,453.2541)" d="M 722.8859 399.3515 L 737.2859 399.3515 L 737.2859 384.9515 L 722.8859 384.9515 Z " fill="#ff0000" fill-opacity=".6"/>
<path transform="matrix(1,0,0,-1,-152.4504,453.2541)" d="M 722.8859 384.9515 L 737.2859 384.9515 L 737.2859 370.5515 L 722.8859 370.5515 Z " fill="#ffc000" fill-opacity=".702"/>
<path transform="matrix(1,0,0,-1,-152.4504,453.2541)" d="M 722.8859 413.7515 L 737.2859 413.7515 L 737.2859 399.3515 L 722.8859 399.3515 Z " fill="#92d050" fill-opacity=".8"/>
<path transform="matrix(1,0,0,-1,-152.4504,453.2541)" d="M 722.8859 370.1417 L 737.2859 370.1417 L 737.2859 355.7417 L 722.8859 355.7417 Z " fill="#92d050" fill-opacity=".8"/>
<path transform="matrix(1,0,0,-1,-152.4504,453.2541)" d="M 695.3737 420.5417 L 709.7737 420.5417 L 709.7737 406.1417 L 695.3737 406.1417 Z " fill="#4472c4" fill-opacity=".702"/>
<path transform="matrix(1,0,0,-1,-152.4504,453.2541)" d="M 695.3737 406.1417 L 709.7737 406.1417 L 709.7737 391.7417 L 695.3737 391.7417 Z " fill="#ff0000" fill-opacity=".6"/>
<path transform="matrix(1,0,0,-1,-152.4504,453.2541)" d="M 695.3737 391.332 L 709.7737 391.332 L 709.7737 376.932 L 695.3737 376.932 Z " fill="#92d050" fill-opacity=".8"/>
<path transform="matrix(1,0,0,-1,-152.4504,453.2541)" d="M 695.3737 377.3417 L 709.7737 377.3417 L 709.7737 362.9417 L 695.3737 362.9417 Z " fill="#ffc000" fill-opacity=".702"/>
<path transform="matrix(1,0,0,-1,-152.4504,453.2541)" d="M 695.3737 362.9606 L 709.7737 362.9606 L 709.7737 348.5606 L 695.3737 348.5606 Z " fill="#ff0000" fill-opacity=".6"/>
<path transform="matrix(1,0,0,-1,-152.4504,453.2541)" d="M 228.5972 272.5298 L 242.9972 272.5298 L 242.9972 258.1298 L 228.5972 258.1298 Z " fill="#4472c4" fill-opacity=".702"/>
<path transform="matrix(1,0,0,-1,-152.4504,453.2541)" d="M 228.5972 258.1298 L 242.9972 258.1298 L 242.9972 243.7298 L 228.5972 243.7298 Z " fill="#ff0000" fill-opacity=".6"/>
<path transform="matrix(1,0,0,-1,-152.4504,453.2541)" d="M 228.5972 243.32 L 242.9972 243.32 L 242.9972 228.92 L 228.5972 228.92 Z " fill="#92d050" fill-opacity=".8"/>
<path transform="matrix(1,0,0,-1,-152.4504,453.2541)" d="M 228.5972 229.3298 L 242.9972 229.3298 L 242.9972 214.9298 L 228.5972 214.9298 Z " fill="#ffc000" fill-opacity=".702"/>
<path transform="matrix(1,0,0,-1,-152.4504,453.2541)" d="M 228.5972 214.9486 L 242.9972 214.9486 L 242.9972 200.5486 L 228.5972 200.5486 Z " fill="#ff0000" fill-opacity=".6"/>
<path transform="matrix(1,0,0,-1,-152.4504,453.2541)" d="M 255.0617 250.3439 L 269.4617 250.3439 L 269.4617 235.9439 L 255.0617 235.9439 Z " fill="#ff0000" fill-opacity=".6"/>
<path transform="matrix(1,0,0,-1,-152.4504,453.2541)" d="M 255.0617 235.9439 L 269.4617 235.9439 L 269.4617 221.5439 L 255.0617 221.5439 Z " fill="#92d050" fill-opacity=".8"/>
<path transform="matrix(1,0,0,-1,-152.4504,453.2541)" d="M 255.0617 264.7439 L 269.4617 264.7439 L 269.4617 250.3439 L 255.0617 250.3439 Z " fill="#4472c4" fill-opacity=".702"/>
<path transform="matrix(1,0,0,-1,-152.4504,453.2541)" d="M 255.0617 221.1342 L 269.4617 221.1342 L 269.4617 206.7342 L 255.0617 206.7342 Z " fill="#ffc000" fill-opacity=".702"/>
<path transform="matrix(1,0,0,-1,-152.4504,453.2541)" d="M 296.4086 272.5298 L 310.8086 272.5298 L 310.8086 258.1298 L 296.4086 258.1298 Z " fill="#4472c4" fill-opacity=".702"/>
<path transform="matrix(1,0,0,-1,-152.4504,453.2541)" d="M 296.4086 258.1298 L 310.8086 258.1298 L 310.8086 243.7298 L 296.4086 243.7298 Z " fill="#ff0000" fill-opacity=".6"/>
<path transform="matrix(1,0,0,-1,-152.4504,453.2541)" d="M 296.4086 243.32 L 310.8086 243.32 L 310.8086 228.92 L 296.4086 228.92 Z " fill="#92d050" fill-opacity=".8"/>
<path transform="matrix(1,0,0,-1,-152.4504,453.2541)" d="M 296.4086 229.3298 L 310.8086 229.3298 L 310.8086 214.9298 L 296.4086 214.9298 Z " fill="#ffc000" fill-opacity=".702"/>
<path transform="matrix(1,0,0,-1,-152.4504,453.2541)" d="M 296.4086 214.9486 L 310.8086 214.9486 L 310.8086 200.5486 L 296.4086 200.5486 Z " fill="#ff0000" fill-opacity=".6"/>
<path transform="matrix(1,0,0,-1,-152.4504,453.2541)" d="M 322.8731 250.3439 L 337.2731 250.3439 L 337.2731 235.9439 L 322.8731 235.9439 Z " fill="#ff0000" fill-opacity=".6"/>
<path transform="matrix(1,0,0,-1,-152.4504,453.2541)" d="M 322.8731 235.9439 L 337.2731 235.9439 L 337.2731 221.5439 L 322.8731 221.5439 Z " fill="#92d050" fill-opacity=".8"/>
<path transform="matrix(1,0,0,-1,-152.4504,453.2541)" d="M 322.8731 264.7439 L 337.2731 264.7439 L 337.2731 250.3439 L 322.8731 250.3439 Z " fill="#4472c4" fill-opacity=".702"/>
<path transform="matrix(1,0,0,-1,-152.4504,453.2541)" d="M 322.8731 221.1342 L 337.2731 221.1342 L 337.2731 206.7342 L 322.8731 206.7342 Z " fill="#ffc000" fill-opacity=".702"/>
<path transform="matrix(1,0,0,-1,-152.4504,453.2541)" d="M 375.2446 271.5342 L 389.6446 271.5342 L 389.6446 257.1342 L 375.2446 257.1342 Z " fill="#4472c4" fill-opacity=".702"/>
<path transform="matrix(1,0,0,-1,-152.4504,453.2541)" d="M 375.2446 257.1342 L 389.6446 257.1342 L 389.6446 242.7342 L 375.2446 242.7342 Z " fill="#ff0000" fill-opacity=".6"/>
<path transform="matrix(1,0,0,-1,-152.4504,453.2541)" d="M 375.2446 242.3244 L 389.6446 242.3244 L 389.6446 227.9244 L 375.2446 227.9244 Z " fill="#92d050" fill-opacity=".8"/>
<path transform="matrix(1,0,0,-1,-152.4504,453.2541)" d="M 375.2446 228.3342 L 389.6446 228.3342 L 389.6446 213.9342 L 375.2446 213.9342 Z " fill="#ffc000" fill-opacity=".702"/>
<path transform="matrix(1,0,0,-1,-152.4504,453.2541)" d="M 375.2446 213.953 L 389.6446 213.953 L 389.6446 199.553 L 375.2446 199.553 Z " fill="#ff0000" fill-opacity=".6"/>
<path transform="matrix(1,0,0,-1,-152.4504,453.2541)" d="M 401.7092 249.3483 L 416.1092 249.3483 L 416.1092 234.9483 L 401.7092 234.9483 Z " fill="#ff0000" fill-opacity=".6"/>
<path transform="matrix(1,0,0,-1,-152.4504,453.2541)" d="M 401.7092 234.9483 L 416.1092 234.9483 L 416.1092 220.5483 L 401.7092 220.5483 Z " fill="#92d050" fill-opacity=".8"/>
<path transform="matrix(1,0,0,-1,-152.4504,453.2541)" d="M 401.7092 263.7483 L 416.1092 263.7483 L 416.1092 249.3483 L 401.7092 249.3483 Z " fill="#4472c4" fill-opacity=".702"/>
<path transform="matrix(1,0,0,-1,-152.4504,453.2541)" d="M 401.7092 220.1386 L 416.1092 220.1386 L 416.1092 205.7386 L 401.7092 205.7386 Z " fill="#ffc000" fill-opacity=".702"/>
<path transform="matrix(1,0,0,-1,-152.4504,453.2541)" d="M 188.2165 243.1439 L 202.6165 243.1439 L 202.6165 228.7439 L 188.2165 228.7439 Z " fill="#ff0000" fill-opacity=".6"/>
<path transform="matrix(1,0,0,-1,-152.4504,453.2541)" d="M 188.2165 228.7439 L 202.6165 228.7439 L 202.6165 214.3439 L 188.2165 214.3439 Z " fill="#92d050" fill-opacity=".8"/>
<path transform="matrix(1,0,0,-1,-152.4504,453.2541)" d="M 188.2165 257.5439 L 202.6165 257.5439 L 202.6165 243.1439 L 188.2165 243.1439 Z " fill="#4472c4" fill-opacity=".702"/>
<path transform="matrix(1,0,0,-1,-152.4504,453.2541)" d="M 441.4244 237.108 L 455.8244 237.108 L 455.8244 222.708 L 441.4244 222.708 Z " fill="#ff0000" fill-opacity=".6"/>
<path transform="matrix(1,0,0,-1,-152.4504,453.2541)" d="M 441.4244 251.508 L 455.8244 251.508 L 455.8244 237.108 L 441.4244 237.108 Z " fill="#4472c4" fill-opacity=".702"/>
<text xml:space="preserve" transform="matrix(.24 0 -0 .24 358.7268 707.41409)" font-size="66.66666" font-family="TimesNewRomanPSMT"><tspan y="-2250" x="0 44.27333 73.96 107.29333 140.62665 173.95998 226.03997 241.49997 282.01997 311.70664 341.3933 360.14665 393.47999 415.87333 432.53999 469.51997 499.20664 532.54 565.8733 584.6266 617.9599">Random Vector Padding</tspan></text>
<path transform="matrix(1,0,0,-1,-152.4504,453.2541)" d="M 508.6871 257.9537 L 523.0871 257.9537 L 523.0871 243.5537 L 508.6871 243.5537 Z " fill="#ff0000" fill-opacity=".6"/>
<path transform="matrix(1,0,0,-1,-152.4504,453.2541)" d="M 508.6871 243.5537 L 523.0871 243.5537 L 523.0871 229.1537 L 508.6871 229.1537 Z " fill="#ffc000" fill-opacity=".702"/>
<path transform="matrix(1,0,0,-1,-152.4504,453.2541)" d="M 508.6871 228.7439 L 523.0871 228.7439 L 523.0871 214.3439 L 508.6871 214.3439 Z " fill="#ff0000" fill-opacity=".6"/>
<text xml:space="preserve" transform="matrix(.24 0 -0 .24 100.0762 678.8541)" font-size="66.66666" font-family="TimesNewRomanPSMT"><tspan y="-2250" x="0 44.27333 73.96 107.29333 140.62665 173.95998 226.03997 244.7933 278.12666 294.7933 313.54664 346.87995 365.63328 384.3866 403.13993 432.8266 451.57994 470.33326 500.01994 529.7066">Randomly initialized</tspan></text>
<path transform="matrix(0,.00007874016,-.00007874016,-0,303.6679,112.05719)" stroke-width="15875" stroke-linecap="butt" stroke-miterlimit="8" stroke-linejoin="miter" fill="none" stroke="#000000" d="M 0 0 C 50501.95 0 91441.86 6822.146 91441.86 15237.69 L 91441.86 1685610 C 91441.86 1694025 132381.8 1700847 182883.7 1700847 C 132381.8 1700847 91441.86 1707670 91441.86 1716085 L 91441.86 3386457 C 91441.86 3394873 50501.95 3401695 0 3401695 "/>
<path transform="matrix(0,.00007874016,-.00007874016,-0,450.95484,112.668888)" stroke-width="15875" stroke-linecap="butt" stroke-miterlimit="8" stroke-linejoin="miter" fill="none" stroke="#000000" d="M 0 0 C 49914.39 0 90378 6743.756 90378 15062.6 L 90378 432993.4 C 90378 441312.3 130841.6 448056 180756 448056 C 130841.6 448056 90378 454799.8 90378 463118.6 L 90378 881049.4 C 90378 889368.3 49914.39 896112 0 896112 "/>
<text xml:space="preserve" transform="matrix(.24 0 -0 .24 385.4737 675.9741)" font-size="66.66666" font-family="TimesNewRomanPSMT"><tspan y="-2250" x="0 36.98 59.37333 92.70666 111.45999 144.79332 163.54666 196.87999 230.21332">Prototype</tspan></text>
<path transform="matrix(.00007874016,0,0,.00007874016,460.5025,130.7265)" stroke-width="19050" stroke-linecap="butt" stroke-miterlimit="8" stroke-linejoin="miter" fill="none" stroke="#000000" d="M 0 0 L 1321147 1 "/>
<path transform="matrix(1,0,0,-1,-152.4504,453.2541)" d="M 638.2938 332.6031 L 638.2938 322.4831 L 636.7938 322.4831 L 636.7938 332.6031 Z M 634.5438 331.6031 L 637.5438 337.6031 L 640.5438 331.6031 Z "/>
<path transform="matrix(1,0,0,-1,-152.4504,453.2541)" d="M 717.7303 332.7333 L 717.7304 322.6133 L 716.2304 322.6133 L 716.2303 332.7333 Z M 713.9803 331.7333 L 716.9803 337.7333 L 719.9803 331.7333 Z "/>
<path transform="matrix(0,.00007874016,-.00007874016,-0,102.85541,263.32899)" stroke-width="15875" stroke-linecap="butt" stroke-miterlimit="8" stroke-linejoin="miter" fill="none" stroke="#000000" d="M 0 0 C 55478.66 0 100453 7495.421 100453 16741.49 L 100453 232346 C 100453 241592.1 145427.3 249087.5 200906 249087.5 C 145427.3 249087.5 100453 256582.9 100453 265829 L 100453 481433.5 C 100453 490679.6 55478.66 498175 0 498175 "/>
<text xml:space="preserve" transform="matrix(.24 0 -0 .24 60.8161 828.6141)" font-size="66.66666" font-family="TimesNewRomanPSMT"><tspan y="-2250" x="0 36.98 59.37333 92.70666 111.45999 144.79332 163.54666 196.87999 230.21332">Prototype</tspan></text>
<path transform="matrix(.00007874016,0,0,.00007874016,131.4735,283.3455)" stroke-width="19050" stroke-linecap="butt" stroke-miterlimit="8" stroke-linejoin="miter" fill="none" stroke="#000000" d="M 0 0 L 2095430 1 "/>
<path transform="matrix(1,0,0,-1,-152.4504,453.2541)" d="M 384.1307 183.7387 L 384.1308 170.7387 L 382.6308 170.7387 L 382.6307 183.7387 Z M 380.3807 182.7387 L 383.3807 188.7387 L 386.3807 182.7387 Z "/>
<text xml:space="preserve" transform="matrix(.24 0 -0 .24 117.995807 814.4541)" font-size="75" font-family="Calibri"><tspan y="-2250" x="0">&#x2026;</tspan></text>
<path transform="matrix(1,0,0,-1,-152.4504,453.2541)" d="M 449.3744 213.386 L 449.3745 169.5032 L 447.8745 169.5032 L 447.8744 213.386 Z M 445.6244 212.386 L 448.6244 218.386 L 451.6244 212.386 Z "/>
<text xml:space="preserve" transform="matrix(.24 0 -0 .24 173.438 814.4541)" font-size="75" font-family="Calibri"><tspan y="-2250" x="0">&#x2026;</tspan></text>
<path transform="matrix(1,0,0,-1,-152.4504,453.2541)" d="M 410.7069 183.7387 L 410.7069 170.7387 L 409.2069 170.7387 L 409.2069 183.7387 Z M 406.9569 182.7387 L 409.9568 188.7387 L 412.9569 182.7387 Z "/>
<path transform="matrix(.00007874016,0,0,.00007874016,43.017915,283.3455)" stroke-width="19050" stroke-linecap="butt" stroke-miterlimit="8" stroke-linejoin="miter" fill="none" stroke="#000000" d="M 0 0 L 120851 1 "/>
<path transform="matrix(1,0,0,-1,-152.4504,453.2541)" d="M 196.2183 206.5791 L 196.2184 169.5031 L 194.7184 169.5031 L 194.7183 206.5791 Z M 192.4683 205.579 L 195.4683 211.5791 L 198.4683 205.5791 Z "/>
<text xml:space="preserve" transform="matrix(.24 0 -0 .24 346.0039 828.8541)" font-size="66.66666" font-family="TimesNewRomanPSMT"><tspan y="-2250" x="0 36.98 59.37333 92.70666 111.45999 144.79332 163.54666 196.87999 230.21332">Prototype</tspan></text>
<text xml:space="preserve" transform="matrix(.24 0 -0 .24 408.3963 814.4541)" font-size="75" font-family="Calibri"><tspan y="-2250" x="0">&#x2026;</tspan></text>
<path transform="matrix(.00007874016,0,0,.00007874016,416.6612,283.703)" stroke-width="19050" stroke-linecap="butt" stroke-miterlimit="8" stroke-linejoin="miter" fill="none" stroke="#000000" d="M 0 0 L 2539184 1 "/>
<text xml:space="preserve" transform="matrix(.24 0 -0 .24 478.96156 814.4541)" font-size="75" font-family="Calibri"><tspan y="-2250" x="0">&#x2026;</tspan></text>
<path transform="matrix(1,0,0,-1,-152.4504,453.2541)" d="M 704.5537 183.0858 L 704.5538 170.0858 L 703.0538 170.0858 L 703.0537 183.0858 Z M 700.8037 182.0858 L 703.8037 188.0858 L 706.8037 182.0858 Z "/>
<path transform="matrix(1,0,0,-1,-152.4504,453.2541)" d="M 769.7974 214.6868 L 769.7975 169.1331 L 768.2975 169.1331 L 768.2974 214.6868 Z M 766.0474 213.6868 L 769.0474 219.6868 L 772.0474 213.6868 Z "/>
<path transform="matrix(1,0,0,-1,-152.4504,453.2541)" d="M 731.1298 183.0858 L 731.1299 170.0858 L 729.6299 170.0858 L 729.6298 183.0858 Z M 727.3798 182.0858 L 730.3798 188.0858 L 733.3798 182.0858 Z "/>
<path transform="matrix(.00007874016,0,0,.00007874016,6.3189089,5.0264894)" stroke-width="19050" stroke-linecap="butt" stroke-dasharray="76200,57150" stroke-miterlimit="8" stroke-linejoin="miter" fill="none" stroke="#000000" d="M 0 298137.1 C 0 133480.5 133480.4 0 298136.8 0 L 3688647 0 C 3853304 0 3986784 133480.5 3986784 298137.1 L 3986784 1490651 C 3986784 1655307 3853304 1788788 3688647 1788788 L 298136.8 1788788 C 133480.4 1788788 0 1655307 0 1490651 Z "/>
<path transform="matrix(.00007874016,0,0,.00007874016,329.70973,5.157593)" stroke-width="19050" stroke-linecap="butt" stroke-dasharray="76200,57150" stroke-miterlimit="8" stroke-linejoin="miter" fill="none" stroke="#000000" d="M 0 298137.1 C 0 133480.5 133480.4 0 298136.8 0 L 3688647 0 C 3853304 0 3986784 133480.5 3986784 298137.1 L 3986784 1490651 C 3986784 1655307 3853304 1788788 3688647 1788788 L 298136.8 1788788 C 133480.4 1788788 0 1655307 0 1490651 Z "/>
<path transform="matrix(.00007874016,0,0,.00007874016,6.6552126,153.3465)" stroke-width="19050" stroke-linecap="butt" stroke-dasharray="76200,57150" stroke-miterlimit="8" stroke-linejoin="miter" fill="none" stroke="#000000" d="M 0 298137.1 C 0 133480.5 133480.4 0 298136.8 0 L 3688647 0 C 3853304 0 3986784 133480.5 3986784 298137.1 L 3986784 1490651 C 3986784 1655307 3853304 1788788 3688647 1788788 L 298136.8 1788788 C 133480.4 1788788 0 1655307 0 1490651 Z "/>
<path transform="matrix(.00007874016,0,0,.00007874016,329.7096,153.3465)" stroke-width="19050" stroke-linecap="butt" stroke-dasharray="76200,57150" stroke-miterlimit="8" stroke-linejoin="miter" fill="none" stroke="#000000" d="M 0 298136.4 C 0 133480.2 133480.2 0 298136.3 0 L 3687709 0 C 3852365 0 3985845 133480.2 3985845 298136.4 L 3985845 1490652 C 3985845 1655308 3852365 1788788 3687709 1788788 L 298136.3 1788788 C 133480.2 1788788 0 1655308 0 1490652 Z "/>
<path transform="matrix(.00007874016,0,0,.00007874016,350.5573,188.5102)" stroke-width="19050" stroke-linecap="butt" stroke-dasharray="76200,57150" stroke-miterlimit="8" stroke-linejoin="miter" fill="none" stroke="#000000" d="M 0 0 L 307539 0 L 307539 548640 L 0 548640 Z "/>
<path transform="matrix(1,0,0,-1,-152.4504,453.2541)" d="M 516.3474 218.7747 L 516.3475 180.8307 L 514.8475 180.8307 L 514.8474 218.7747 Z M 518.5975 181.8307 L 515.5975 175.8307 L 512.5975 181.8307 Z "/>
</g>
</g>
</svg>
